<svg width="192" height="192" viewBox="0 0 192 192" fill="none" xmlns="http://www.w3.org/2000/svg">
<path fill-rule="evenodd" clip-rule="evenodd" d="M87.5392 12.8C90.9019 12.8001 93.8701 14.4829 95.6524 17.051C100.301 17.1912 104.89 18.2466 109.148 20.1773C114.58 22.6402 119.299 26.441 122.862 31.2238C126.067 35.5265 128.239 40.4986 129.23 45.7558C151.396 56.9846 166.828 79.5777 167.862 105.871H167.919V179.2H134.074V168.928C123.391 175.445 110.84 179.2 97.4105 179.2C58.4698 179.2 26.902 147.632 26.902 108.692C26.902 91.2167 33.2589 75.2265 43.7867 62.9078C42.0455 61.5866 40.139 60.4896 38.1109 59.6495C36.1826 58.8508 34.1685 58.2917 32.1138 57.9833C30.8816 62.0307 27.1213 64.9767 22.6711 64.9767C17.2196 64.9766 12.7999 60.5569 12.7998 55.1054C12.7998 49.6537 17.2195 45.2342 22.6711 45.2341C25.3736 45.2341 27.8218 46.3208 29.6044 48.0802C33.7928 48.2339 37.9239 49.1314 41.8025 50.7379C44.9733 52.0513 47.929 53.8192 50.5799 55.9791C63.0329 44.9077 79.4368 38.183 97.4105 38.183C104.441 38.183 111.232 39.2123 117.639 41.128C116.937 39.6767 116.097 38.2894 115.127 36.9866C112.538 33.5125 109.11 30.7519 105.165 28.9629C102.428 27.722 99.5026 26.9763 96.5262 26.7503C94.9735 30.1658 91.5356 32.5426 87.5392 32.5426C82.0875 32.5426 77.668 28.123 77.6679 22.6713C77.6679 17.2196 82.0875 12.8 87.5392 12.8ZM97.4105 72.0266C77.1614 72.0267 60.7468 88.4424 60.7467 108.692C60.7467 128.941 77.1614 145.356 97.4105 145.356C117.628 145.356 134.023 128.992 134.074 108.786V108.596C134.066 105.305 133.622 102.117 132.8 99.084C129.439 103.224 124.311 105.871 118.563 105.871C108.438 105.871 100.231 97.6638 100.231 87.5395C100.231 81.7914 102.876 76.6607 107.016 73.2995C103.954 72.4706 100.734 72.0266 97.4105 72.0266Z" fill="white"/>
</svg>
