<svg width="16" height="16" viewBox="0 0 16 16" fill="none" xmlns="http://www.w3.org/2000/svg">
<path fill-rule="evenodd" clip-rule="evenodd" d="M7.29469 1.06665C7.57492 1.06665 7.82227 1.20689 7.97079 1.42089C8.35816 1.43258 8.74057 1.52053 9.09544 1.68142C9.54809 1.88667 9.94132 2.20339 10.2382 2.60196C10.5053 2.96053 10.6863 3.37486 10.7689 3.81296C12.6161 4.7487 13.9021 6.63146 13.9883 8.82259H13.993V14.9333H11.1726V14.0773C10.2824 14.6204 9.23639 14.9333 8.1173 14.9333C4.87224 14.9333 2.24159 12.3027 2.24159 9.05761C2.24159 7.60137 2.77133 6.26886 3.64865 5.24229C3.50355 5.1322 3.34467 5.04078 3.17567 4.97077C3.01497 4.90422 2.84713 4.85762 2.6759 4.83192C2.57323 5.1692 2.25987 5.4147 1.88901 5.4147C1.43472 5.4147 1.06642 5.04639 1.06641 4.5921C1.06641 4.13779 1.43471 3.7695 1.88901 3.76949C2.11422 3.76949 2.31824 3.86004 2.46679 4.00666C2.81583 4.01947 3.16008 4.09426 3.4833 4.22814C3.74753 4.33759 3.99384 4.48492 4.21475 4.66491C5.2525 3.74229 6.61949 3.1819 8.1173 3.1819C8.7032 3.1819 9.26906 3.26767 9.80304 3.42732C9.7445 3.30637 9.6745 3.19076 9.59363 3.0822C9.37796 2.79268 9.09227 2.56264 8.76347 2.41356C8.53539 2.31015 8.29164 2.248 8.0436 2.22917C7.91421 2.51379 7.62772 2.71186 7.29469 2.71186C6.84038 2.71186 6.47209 2.34356 6.47208 1.88926C6.47208 1.43495 6.84038 1.06665 7.29469 1.06665ZM8.1173 6.0022C6.42987 6.0022 5.06199 7.37018 5.06198 9.05761C5.06198 10.745 6.42987 12.113 8.1173 12.113C9.80211 12.113 11.1684 10.7493 11.1726 9.06546V9.04966C11.1719 8.77542 11.1349 8.50973 11.0664 8.25698C10.7863 8.60197 10.359 8.82259 9.87997 8.82259C9.03627 8.82258 8.35233 8.13863 8.35231 7.29493C8.35231 6.81593 8.57275 6.38837 8.91773 6.10827C8.6626 6.0392 8.39427 6.0022 8.1173 6.0022Z" fill="white"/>
</svg>
