<svg width="1201" height="800" viewBox="0 0 1201 800" fill="none" xmlns="http://www.w3.org/2000/svg">
<path d="M9.32947 529.444H1191.65" stroke="#353C4C"/>
<path d="M1.50385 645.741H1201" stroke="#353C4C"/>
<path d="M1.50385 761.286H1201" stroke="#353C4C"/>
<path d="M87.9429 499.399H1114.59" stroke="#353C4C"/>
<path d="M149.375 478.755H1053.16" stroke="#353C4C"/>
<path d="M217.054 456.045H985.482" stroke="#353C4C"/>
<path d="M251.415 444.691H951.122" stroke="#353C4C"/>
<path d="M280.57 405.571H923.008" stroke="#353C4C"/>
<path d="M280.049 338.66H922.488" stroke="#353C4C"/>
<path d="M1 1572V550.872C1 537.415 9.61238 525.467 22.3818 521.209L258.667 442.428C271.437 438.17 280.049 426.222 280.049 412.765V0" stroke="#353C4C"/>
<path d="M1200.12 1572V550.625C1200.12 537.187 1191.53 525.251 1178.78 520.978L943.797 442.209C931.052 437.937 922.463 426 922.463 412.562V0" stroke="#353C4C"/>
<path d="M122.179 1572V548.871C122.179 536.301 129.709 524.952 141.293 520.064L324.822 442.608C336.406 437.72 343.935 426.371 343.935 413.801V0" stroke="#353C4C"/>
<path d="M1080.27 1572V548.871C1080.27 536.3 1072.74 524.953 1061.16 520.063L877.628 442.607C866.044 437.719 858.514 426.37 858.514 413.8V0" stroke="#353C4C"/>
<path d="M240.017 1572V546.608C240.017 535.266 246.16 524.814 256.069 519.294L391.832 443.66C401.742 438.14 407.884 427.687 407.884 416.345V0" stroke="#353C4C"/>
<path d="M962.445 1572V546.608C962.445 535.266 956.302 524.814 946.393 519.294L810.63 443.66C800.72 438.14 794.577 427.687 794.577 416.345V0" stroke="#353C4C"/>
<path d="M358.923 1572V542.732C358.923 533.423 363.071 524.599 370.239 518.659L460.517 443.843C467.685 437.902 471.834 429.078 471.834 419.769V0" stroke="#353C4C"/>
<path d="M843.538 1572V542.732C843.538 533.423 839.391 524.599 832.222 518.659L741.945 443.843C734.776 437.902 730.628 429.078 730.628 419.769V0" stroke="#353C4C"/>
<path d="M478.826 1572V536.758C478.826 530.927 480.458 525.213 483.535 520.26L532.072 442.133C535.15 437.18 536.781 431.466 536.781 425.636V0" stroke="#353C4C"/>
<path d="M723.636 1572V536.758C723.636 530.928 722.005 525.213 718.927 520.26L670.389 442.133C667.312 437.18 665.681 431.466 665.681 425.636V0" stroke="#353C4C"/>
<path d="M600.731 0V570.056V1572" stroke="#353C4C"/>
</svg>
