<svg width="20" height="15" viewBox="0 0 20 15" fill="none" xmlns="http://www.w3.org/2000/svg">
<path d="M16.9309 1.24343C15.6562 0.667926 14.2892 0.243898 12.86 0.00101906C12.834 -0.00367016 12.8079 0.00805289 12.7945 0.0314606C12.6187 0.339143 12.424 0.740494 12.2876 1.05598C10.7504 0.829513 9.22102 0.829513 7.71531 1.05598C7.57891 0.733499 7.37711 0.339143 7.20051 0.0314606C7.18711 0.00882162 7.16109 -0.00290144 7.13508 0.00101906C5.70664 0.243091 4.33968 0.667119 3.06413 1.24343C3.05308 1.24812 3.04363 1.25592 3.03734 1.26607C0.444522 5.0776 -0.265791 8.79546 0.0826467 12.4672C0.0842092 12.4852 0.0944827 12.5023 0.108662 12.5132C1.81933 13.7494 3.47644 14.4998 5.10273 14.9973C5.12875 15.0051 5.15632 14.9957 5.17289 14.9746C5.55758 14.4577 5.90051 13.9126 6.19453 13.3394C6.21187 13.3059 6.19531 13.2661 6.15984 13.2528C5.6159 13.0497 5.09797 12.8022 4.59972 12.5211C4.56031 12.4985 4.55714 12.443 4.59343 12.4164C4.69828 12.3391 4.80316 12.2587 4.90328 12.1775C4.9214 12.1626 4.94664 12.1595 4.96793 12.1689C8.24106 13.6393 11.7846 13.6393 15.0191 12.1689C15.0404 12.1587 15.0656 12.1619 15.0845 12.1767C15.1847 12.2579 15.2895 12.3391 15.3952 12.4164C15.4314 12.4429 15.429 12.4984 15.3897 12.5211C14.8914 12.8076 14.3735 13.0497 13.8288 13.252C13.7933 13.2652 13.7775 13.3058 13.7949 13.3394C14.0952 13.9118 14.4382 14.4569 14.8158 14.9738C14.8315 14.9957 14.8599 15.0051 14.8859 14.9972C16.5201 14.4998 18.1772 13.7494 19.8879 12.5132C19.9029 12.5023 19.9123 12.4859 19.9139 12.4679C20.3309 8.22299 19.2154 4.53561 16.9568 1.2668C16.9514 1.25592 16.9419 1.24812 16.9309 1.24343ZM6.6834 10.2315C5.69797 10.2315 4.88597 9.3413 4.88597 8.24802C4.88597 7.15474 5.68218 6.26455 6.6834 6.26455C7.69242 6.26455 8.49656 7.16258 8.48078 8.24802C8.48078 9.3413 7.68453 10.2315 6.6834 10.2315ZM13.329 10.2315C12.3436 10.2315 11.5316 9.3413 11.5316 8.24802C11.5316 7.15474 12.3278 6.26455 13.329 6.26455C14.3381 6.26455 15.1422 7.16258 15.1264 8.24802C15.1264 9.3413 14.3381 10.2315 13.329 10.2315Z" fill="currentColor"/>
</svg>
