<svg width="48" height="48" viewBox="0 0 48 48" fill="none" xmlns="http://www.w3.org/2000/svg">
<path fill-rule="evenodd" clip-rule="evenodd" d="M24 48C37.2548 48 48 37.2548 48 24C48 10.7452 37.2548 0 24 0C10.7452 0 0 10.7452 0 24C0 37.2548 10.7452 48 24 48ZM28.6575 11.6667C30.8832 12.1703 32.9377 12.8417 34.9922 13.681C38.5875 18.717 40.2995 24.5923 39.9572 31.1392C37.2178 32.9857 34.6497 34.1607 32.0817 35H31.9105L30.3697 32.482V32.3142C31.2257 31.9783 31.9105 31.6427 32.7665 31.1392V30.9712C32.5953 30.9712 32.424 30.8033 32.2528 30.6355H32.0817C27.1167 32.9857 21.467 32.9857 16.3308 30.6355H16.1597C16.074 30.7195 15.9883 30.7613 15.9028 30.8033C15.8172 30.8453 15.7317 30.8873 15.646 30.9712V31.1392C16.3308 31.6427 17.1868 31.9783 18.0428 32.3142V32.482C17.7005 33.3213 17.1868 34.1607 16.502 35H16.3308C13.7627 34.1607 11.1946 32.9857 8.45537 31.1392C7.94175 25.4317 8.96898 19.5563 13.0779 13.681C14.9612 12.6739 17.1868 12.0024 19.4125 11.6667H19.5837C19.9262 12.1703 20.2685 12.8417 20.4397 13.3453C22.8367 13.0096 25.2335 13.0096 27.6303 13.3453C27.8015 13.0935 27.93 12.7998 28.0583 12.506C28.1868 12.2122 28.3152 11.9185 28.4863 11.6667H28.6575ZM16.1597 24.5923C16.1597 26.271 17.358 27.6138 18.8988 27.6138C20.4397 27.6138 21.6382 26.271 21.6382 24.5923C21.8093 22.9137 20.4397 21.5707 18.8988 21.5707C17.358 21.5707 16.1597 22.9137 16.1597 24.5923ZM26.6032 24.5923C26.6032 26.271 27.8015 27.6138 29.3423 27.6138C30.8832 27.6138 32.0817 26.271 32.0817 24.5923C32.2528 22.9137 30.8832 21.5707 29.3423 21.5707C27.8015 21.5707 26.6032 22.9137 26.6032 24.5923Z" fill="white"/>
</svg>
