<svg width="48" height="48" viewBox="0 0 48 48" fill="none" xmlns="http://www.w3.org/2000/svg">
<path d="M24 0C37.2548 0 48 10.7452 48 24C48 37.2548 37.2548 48 24 48C10.7452 48 0 37.2548 0 24C0 10.7452 10.7452 0 24 0ZM12.3096 14.25V14.6631L14.6035 17.4258C14.8282 17.6286 14.9435 17.9261 14.9131 18.2275V29.085C14.9797 29.4768 14.856 29.8763 14.5801 30.1621L12 33.292V33.7051H19.3164V33.292L16.7363 30.1621C16.4584 29.8763 16.3275 29.4798 16.3809 29.085V19.6953L22.8027 33.7041H23.5479L29.0635 19.6953V30.8613C29.0635 31.1594 29.063 31.2162 28.8682 31.4111L26.8848 33.3369V33.75H36.5166V33.3369L34.6016 31.457C34.4323 31.3283 34.349 31.1168 34.3838 30.9072V17.0928C34.349 16.8832 34.4328 16.6717 34.6016 16.543L36.5625 14.6631V14.25H29.7744L24.9346 26.3213L19.4307 14.25H12.3096Z" fill="white"/>
</svg>
