<svg width="48" height="48" viewBox="0 0 48 48" fill="none" xmlns="http://www.w3.org/2000/svg">
<path d="M24 0C37.2548 0 48 10.7452 48 24C48 37.2548 37.2548 48 24 48C10.7452 48 0 37.2548 0 24C1.03081e-06 10.7452 10.7452 1.03088e-06 24 0ZM25.958 9.59277C25.5585 9.50317 25.1589 9.75429 25.0693 10.1602V10.1719L23.2969 18.5C19.9562 18.5539 16.7054 19.5802 13.9375 21.4531C12.5295 20.1289 10.3096 20.1945 8.98535 21.6084C7.66146 23.0164 7.72696 25.2354 9.14062 26.5596C9.41527 26.8161 9.73104 27.0372 10.083 27.1924C10.059 27.5443 10.059 27.8962 10.083 28.248C10.083 33.6229 16.3471 37.996 24.0723 37.9961C31.7976 37.9961 38.0615 33.6288 38.0615 28.248C38.0855 27.8962 38.0855 27.5443 38.0615 27.1924C39.2669 26.5897 40.025 25.3483 40.001 24C39.9295 22.0672 38.3068 20.5575 36.3682 20.623C35.509 20.6529 34.6916 21.0053 34.0713 21.5957C31.3391 19.7344 28.1292 18.714 24.8301 18.6426L26.3877 11.1553L31.5234 12.2354C31.6664 13.5536 32.8478 14.5084 34.166 14.3652C35.4844 14.2223 36.4394 13.0411 36.2959 11.7227C36.1524 10.4043 34.9717 9.44931 33.6533 9.59277C32.8955 9.67012 32.2153 10.112 31.8398 10.7686L25.958 9.59277ZM18.1719 32.0898C18.4103 31.893 18.7513 31.893 18.9961 32.0898C20.4398 33.1457 22.2001 33.6824 23.9893 33.5986C25.779 33.694 27.5446 33.1813 29.0059 32.1377C29.2683 31.8812 29.698 31.887 29.9551 32.1494C30.2114 32.4118 30.2055 32.8412 29.9434 33.0977V33.002C28.2372 34.2846 26.1487 34.9406 24.0127 34.8516C21.8768 34.9411 19.7896 34.2845 18.083 33.002C17.8564 32.7274 17.8976 32.3166 18.1719 32.0898ZM29.5137 24.083C30.8379 24.083 31.9179 25.1631 31.918 26.4873C31.9713 27.812 30.9394 28.9275 29.6152 28.9814H29.4951L29.5137 28.8916C28.1894 28.8916 27.1094 27.8116 27.1094 26.4873C27.1095 25.1631 28.1895 24.083 29.5137 24.083ZM18.4053 24C19.7295 24 20.8096 25.08 20.8096 26.4043C20.8096 27.7286 19.7295 28.8086 18.4053 28.8086C17.0752 28.7963 16.001 27.7285 16.001 26.4043C16.001 25.0801 17.0811 24.0001 18.4053 24Z" fill="white"/>
</svg>
