<svg width="400" height="340" viewBox="0 0 400 340" fill="none" xmlns="http://www.w3.org/2000/svg">
<path d="M199.752 0L225.05 40.2477L125.471 199.876H75L199.752 0ZM307.639 172.384L325 200H176.066L193.428 172.384H307.639ZM250.595 80.9907L282.341 131.889H218.973L250.595 80.9907Z" fill="black"/>
<path d="M55.2384 240L90.8623 338.139H72.7323L66.3708 320.721H24.3855L18.1301 338.139H0L35.518 240H55.2384ZM45.3782 263.154L30.6409 303.621H60.1155L45.3782 263.154Z" fill="black"/>
<path d="M141.19 266.077C146.279 266.077 150.944 267.352 155.079 269.794C159.214 272.237 162.712 275.636 165.151 279.884C167.59 284.133 168.862 288.7 168.862 293.904V338.194H151.898V298.365C151.898 295.604 151.262 293.055 149.884 290.824C148.505 288.594 146.703 286.788 144.476 285.407C142.25 284.027 139.705 283.389 136.949 283.389C134.192 283.389 131.648 284.027 129.421 285.407C127.195 286.788 125.392 288.488 124.014 290.824C122.636 293.161 121.999 295.604 121.999 298.365V338.194H104.93L104.824 267.989H121.893L121.999 274.255C124.332 271.706 127.195 269.688 130.587 268.307C133.98 266.927 137.373 266.077 141.19 266.077Z" fill="black"/>
<path d="M206.878 246.029V268.014H220.449V285.114H206.878V338.114H189.808V285.114H179.418V268.014H189.808V246.029H206.878Z" fill="black"/>
<path d="M263.808 266.077C269.215 266.077 274.305 267.245 278.864 269.582C283.423 271.919 287.24 275.105 290.42 279.035C293.601 283.071 295.933 287.638 297.312 292.736C298.69 297.834 299.114 303.251 298.266 308.88H247.163C247.799 311.535 248.859 313.872 250.343 315.89C251.828 318.014 253.736 319.607 255.962 320.882C258.189 322.157 260.84 322.794 263.702 322.794C266.671 322.794 269.428 322.157 271.866 320.67C274.305 319.183 276.319 317.165 278.015 314.722L295.403 318.758C292.541 325.024 288.3 330.016 282.68 334.052C277.061 338.088 270.806 340 263.808 340C257.341 340 251.509 338.301 246.208 335.008C240.907 331.716 236.666 327.255 233.591 321.625C230.517 315.996 228.82 309.836 228.82 303.038C228.82 297.94 229.775 293.161 231.577 288.7C233.379 284.239 235.924 280.309 239.105 276.911C242.285 273.512 245.996 270.856 250.237 268.945C254.478 267.033 259.037 266.077 263.808 266.077ZM263.808 281.053C261.052 281.053 258.401 281.69 256.069 283.071C253.736 284.452 251.616 286.151 250.025 288.381C248.435 290.612 247.269 293.161 246.632 296.029H281.09C280.56 293.267 279.5 290.718 277.803 288.381C276.107 286.045 274.093 284.345 271.654 282.965C269.215 281.69 266.565 281.053 263.808 281.053Z" fill="black"/>
<path d="M328.646 240L353.562 274.306L378.477 240H399.576L364.164 288.751L400 338.139H378.795L353.562 303.408L328.328 338.139H307.123L342.959 288.751L307.547 240H328.646Z" fill="black"/>
</svg>
