<svg width="763" height="200" viewBox="0 0 763 200" fill="none" xmlns="http://www.w3.org/2000/svg">
<path d="M249.659 200H100.929L118.267 172.384H232.322L249.659 200ZM149.845 40.248L50.4023 199.876H0L124.582 0L149.845 40.248ZM603.615 82.0156C609.931 82.0156 615.876 83.3781 621.201 86.1025C626.526 88.827 630.984 92.5421 634.699 97.124C638.414 101.83 641.139 107.155 642.749 113.1C644.359 119.044 644.854 125.36 643.863 131.923H584.173C584.916 135.019 586.154 137.744 587.888 140.097C589.621 142.573 591.851 144.431 594.451 145.917C597.052 147.403 600.149 148.146 603.492 148.146C606.96 148.145 610.179 147.403 613.027 145.669C615.876 143.935 618.229 141.583 620.21 138.734L640.52 143.44C637.176 150.747 632.222 156.567 625.659 161.272C619.096 165.978 611.789 168.208 603.615 168.208C596.061 168.208 589.25 166.227 583.059 162.388C576.867 158.549 571.913 153.347 568.321 146.783C564.73 140.22 562.749 133.037 562.749 125.111C562.749 119.167 563.864 113.595 565.969 108.394C568.074 103.192 571.046 98.6102 574.761 94.6475C578.476 90.6846 582.811 87.5885 587.765 85.3594C592.718 83.1304 598.043 82.0157 603.615 82.0156ZM460.394 82.0156C466.338 82.0157 471.787 83.5023 476.616 86.3506C481.446 89.1989 485.533 93.1617 488.381 98.1152C491.229 103.069 492.715 108.394 492.715 114.462V166.103H472.901V119.663C472.901 116.443 472.158 113.471 470.548 110.87C468.938 108.27 466.833 106.165 464.232 104.555C461.632 102.945 458.659 102.201 455.439 102.201C452.22 102.201 449.248 102.945 446.647 104.555C444.047 106.165 441.941 108.146 440.331 110.87C438.721 113.595 437.979 116.443 437.979 119.663V166.103H418.04L417.917 84.2451H437.854L437.979 91.5518C440.703 88.5796 444.047 86.2261 448.01 84.6162C451.973 83.0064 455.935 82.0156 460.394 82.0156ZM401.609 166.038H380.433L373.003 145.729H323.962L316.656 166.038H295.479L336.966 51.6113H360L401.609 166.038ZM708.45 91.6113L737.553 51.6113H762.196L720.834 108.453L762.691 166.038H737.924L708.45 125.543L678.977 166.038H654.209L696.066 108.453L654.704 51.6113H679.348L708.45 91.6113ZM537.119 84.2744H552.971V104.213H537.119V166.009H517.181V104.213H505.045V84.2744H517.181V58.6396H537.119V84.2744ZM207.059 131.889H143.777L175.356 80.9902L207.059 131.889ZM331.269 125.79H365.696L348.482 78.6074L331.269 125.79ZM603.615 99.4775C600.396 99.4776 597.3 100.22 594.575 101.83C591.851 103.44 589.374 105.422 587.517 108.022C585.659 110.623 584.297 113.595 583.554 116.938H623.802C623.183 113.719 621.943 110.747 619.962 108.022C617.98 105.298 615.628 103.316 612.779 101.706C609.931 100.22 606.835 99.4775 603.615 99.4775Z" fill="black"/>
</svg>
