<svg width="609" height="164" viewBox="0 0 609 164" fill="none" xmlns="http://www.w3.org/2000/svg">
<path d="M205.33 164H83.2041L97.4404 141.354H191.094L205.33 164ZM123.37 33.0029L41.7158 163.898H0.330078L102.626 0L123.37 33.0029ZM400.243 66.4053C406.187 66.4053 411.637 67.891 416.467 70.7393C421.296 73.5875 425.383 77.5504 428.231 82.5039C431.08 87.4574 432.565 92.7826 432.565 98.8506V150.491H412.751V104.052C412.751 100.832 412.008 97.8602 410.398 95.2598C408.789 92.6592 406.684 90.5533 404.083 88.9434C401.482 87.3335 398.51 86.5908 395.29 86.5908C392.07 86.5908 389.098 87.3335 386.497 88.9434C383.896 90.5533 381.792 92.5353 380.182 95.2598C378.572 97.9841 377.829 100.832 377.829 104.052V150.491H357.891L357.767 68.6338H377.705L377.829 75.9404C380.553 72.9685 383.897 70.6157 387.859 69.0059C391.822 67.396 395.785 66.4053 400.243 66.4053ZM341.46 150.428H320.283L312.853 130.117H263.812L256.506 150.428H235.33L276.815 36H299.85L341.46 150.428ZM554.301 76L583.402 36H608.047L566.685 92.8418L608.542 150.428H583.774L554.301 109.932L524.827 150.428H500.059L541.917 92.8418L500.555 36H525.198L554.301 76ZM476.969 68.6641H492.82V88.6016H476.969V150.397H457.031V88.6016H444.895V68.6641H457.031V43.0293H476.969V68.6641ZM271.119 110.18H305.546L288.333 62.9971L271.119 110.18ZM170.35 108.148H118.388L144.317 66.4121L170.35 108.148Z" fill="black"/>
</svg>
