<svg width="374" height="115" viewBox="0 0 374 115" fill="none" xmlns="http://www.w3.org/2000/svg">
<path d="M64.5201 0L106.13 114.427H84.9536L77.5232 94.1176H28.483L21.1765 114.427H0L41.4861 0H64.5201ZM53.0031 26.9969L35.7895 74.1796H70.2167L53.0031 26.9969Z" fill="white"/>
<path d="M164.914 30.405C170.858 30.405 176.307 31.891 181.137 34.7393C185.967 37.5876 190.053 41.5505 192.902 46.504C195.75 51.4576 197.236 56.7827 197.236 62.8508V114.492H177.422V68.052C177.422 64.8322 176.679 61.8601 175.069 59.2594C173.459 56.6588 171.354 54.5536 168.753 52.9437C166.152 51.3337 163.18 50.5907 159.96 50.5907C156.741 50.5907 153.768 51.3337 151.168 52.9437C148.567 54.5536 146.462 56.535 144.852 59.2594C143.242 61.9839 142.499 64.8322 142.499 68.052V114.492H122.561L122.437 32.6341H142.375L142.499 39.9406C145.224 36.9684 148.567 34.6155 152.53 33.0056C156.493 31.3957 160.456 30.405 164.914 30.405Z" fill="white"/>
<path d="M241.64 7.0291V32.6638H257.491V52.6019H241.64V114.398H221.702V52.6019H209.565V32.6638H221.702V7.0291H241.64Z" fill="white"/>
<path d="M289.869 0L318.971 40L348.073 0H372.717L331.355 56.8421L373.212 114.427H348.445L318.971 73.9319L289.497 114.427H264.729L306.587 56.8421L265.225 0H289.869Z" fill="white"/>
</svg>
