<svg width="326" height="324" viewBox="0 0 326 324" fill="none" xmlns="http://www.w3.org/2000/svg">
<path d="M162.752 0L188.05 40.2477L88.4712 199.876H38L162.752 0ZM270.639 172.384L288 200H139.066L156.428 172.384H270.639ZM213.595 80.9907L245.341 131.889H181.973L213.595 80.9907Z" fill="white"/>
<path d="M56.3536 224L92.6967 323.944H74.2007L67.7108 306.205H24.8778L18.4961 323.944H0L36.235 224H56.3536ZM46.2943 247.58L31.2595 288.79H61.3291L46.2943 247.58Z" fill="white"/>
<path d="M144.04 250.556C149.232 250.556 153.991 251.854 158.21 254.342C162.428 256.83 165.997 260.291 168.485 264.618C170.973 268.944 172.271 273.595 172.271 278.896V324H154.965V283.438C154.965 280.626 154.316 278.03 152.91 275.759C151.503 273.487 149.665 271.649 147.393 270.242C145.122 268.836 142.526 268.187 139.714 268.187C136.901 268.187 134.305 268.836 132.034 270.242C129.762 271.649 127.924 273.379 126.518 275.759C125.111 278.138 124.462 280.626 124.462 283.438V324H107.048L106.94 252.503H124.354L124.462 258.885C126.842 256.289 129.762 254.234 133.224 252.828C136.685 251.422 140.146 250.556 144.04 250.556Z" fill="white"/>
<path d="M211.054 230.139V252.529H224.899V269.944H211.054V323.918H193.64V269.944H183.04V252.529H193.64V230.139H211.054Z" fill="white"/>
<path d="M253.179 224L278.598 258.937L304.016 224H325.541L289.414 273.647L325.973 323.944H304.341L278.598 288.574L252.854 323.944H231.222L267.781 273.647L231.654 224H253.179Z" fill="white"/>
</svg>
