<svg width="48" height="48" viewBox="0 0 48 48" fill="none" xmlns="http://www.w3.org/2000/svg">
<g clip-path="url(#clip0_2495_23498)">
<path d="M24 0C10.742 0 0 10.742 0 24C0 37.258 10.742 48 24 48C37.258 48 48 37.258 48 24C48 10.742 37.258 0 24 0ZM35.787 16.442L31.8483 35.0032C31.558 36.3193 30.7742 36.6387 29.6807 36.0193L23.6807 31.5968L20.787 34.3838C20.4677 34.7032 20.1968 34.9742 19.5775 34.9742L20.0032 28.8677L31.1225 18.8225C31.6063 18.3968 31.0162 18.1548 30.3775 18.5807L16.6355 27.2323L10.7129 25.3838C9.4258 24.9775 9.39677 24.0968 10.9839 23.4775L34.1225 14.5548C35.1968 14.1677 36.1355 14.8162 35.787 16.442Z" fill="white"/>
</g>
<defs>
<clipPath id="clip0_2495_23498">
<rect width="48" height="48" fill="white"/>
</clipPath>
</defs>
</svg>
