<svg width="48" height="48" viewBox="0 0 48 48" fill="none" xmlns="http://www.w3.org/2000/svg">
<g clip-path="url(#clip0_2495_23497)">
<path d="M18.6899 15.249L31.2437 32.7979L30.5566 32.8008C30.0012 32.8031 29.6504 32.8027 29.436 32.7993C29.3898 32.7986 29.3509 32.7959 29.3188 32.7949C29.3007 32.7699 29.2801 32.7415 29.2573 32.71C29.1564 32.5701 29.0125 32.3691 28.8354 32.1226L17.6792 16.5308C17.3334 16.0477 17.0139 15.6009 16.7783 15.271C16.7711 15.261 16.7634 15.2515 16.7563 15.2417L18.6899 15.249Z" fill="white"/>
<path fill-rule="evenodd" clip-rule="evenodd" d="M24 0C37.2548 0 48 10.7452 48 24C48 37.2548 37.2548 48 24 48C10.7452 48 0 37.2548 0 24C0 10.7452 10.7452 0 24 0ZM12.769 13.125L13.1953 13.7183L13.3242 13.8984L16.9614 19.0693C18.8922 21.8162 20.6784 24.3572 20.9312 24.7163L21.2285 25.144C21.2213 25.1523 21.214 25.162 21.2065 25.1704L20.4888 25.9834L14.502 32.7832C13.9877 33.3682 13.4973 33.9256 13.4092 34.0239C13.3612 34.0774 13.3151 34.1311 13.2803 34.1748C13.2635 34.1959 13.2456 34.2188 13.2305 34.2407C13.2234 34.251 13.2134 34.2682 13.2026 34.2876C13.1975 34.297 13.1877 34.3132 13.1792 34.3345C13.1768 34.3405 13.1708 34.3581 13.1646 34.3828L13.1514 34.4766L13.1719 34.5996C13.2084 34.7056 13.2846 34.7648 13.3096 34.7827C13.3529 34.8137 13.3933 34.829 13.4077 34.834C13.4409 34.8455 13.47 34.8498 13.481 34.8516C13.5083 34.8561 13.5376 34.8587 13.5601 34.8604C13.6084 34.8638 13.6739 34.8672 13.752 34.8691C13.9109 34.8732 14.1429 34.875 14.4375 34.875H15.5171L15.6284 34.7476L20.1064 29.6587L20.2954 29.4448L20.2939 29.4434C20.3451 29.3869 20.715 28.9692 21.1143 28.5146L21.6387 27.9199C21.7806 27.7589 21.8569 27.6727 21.8569 27.6724L21.8555 27.6709C21.8829 27.6426 22.1082 27.389 22.3447 27.1187L22.4927 26.9502C22.6336 27.1482 22.8255 27.4187 23.0566 27.7456C23.567 28.4673 24.2687 29.4629 25.0386 30.5581L27.9009 34.6304L27.9609 34.7153L28.0737 34.8735L31.3901 34.875L33.9155 34.8691C34.1441 34.8669 34.2984 34.8632 34.396 34.8589C34.4424 34.8568 34.487 34.8549 34.5234 34.8501C34.5369 34.8483 34.5746 34.8436 34.6157 34.8296C34.6305 34.8246 34.6895 34.8034 34.7476 34.752C34.7798 34.7233 34.8288 34.6709 34.856 34.5894C34.8708 34.5447 34.8767 34.4994 34.875 34.4561L34.8486 34.333L34.8252 34.2832C34.8219 34.2775 34.8195 34.2726 34.8179 34.27C34.8144 34.2644 34.8114 34.2589 34.8091 34.2554C34.8041 34.2478 34.7966 34.2387 34.79 34.229C34.7766 34.2092 34.7575 34.1812 34.7329 34.1455C34.683 34.0733 34.6082 33.9662 34.5073 33.8218C34.3054 33.5326 33.9974 33.092 33.5698 32.4829L29.4624 26.6411C28.0808 24.677 27.299 23.5633 26.8638 22.938C26.6916 22.6906 26.5753 22.5211 26.4976 22.4062C26.5726 22.3196 26.6783 22.1994 26.8242 22.0327C27.2284 21.571 27.9414 20.7607 29.1782 19.355L30.479 17.8755C30.7698 17.5445 31.0625 17.2123 31.1294 17.1372C31.1997 17.0583 31.5571 16.6516 31.9248 16.2334L33.3193 14.6484L34.084 13.7769L34.1294 13.708C34.147 13.6745 34.1784 13.6025 34.1733 13.5073C34.1605 13.267 33.9598 13.1812 33.9243 13.1675C33.8707 13.1468 33.8193 13.1408 33.7969 13.1382C33.7673 13.1348 33.7346 13.1323 33.7017 13.1309C33.573 13.1251 33.3312 13.125 32.9019 13.125H31.8076L31.6948 13.2524L31.2832 13.7212L29.4668 15.7852L29.1211 16.1792C29.058 16.2521 28.9308 16.3957 28.8398 16.4971L27.8071 17.6704C27.5703 17.9405 27.3534 18.1878 27.1948 18.3677C27.1156 18.4576 27.0509 18.5308 27.0059 18.5815C26.9836 18.6066 26.9663 18.6256 26.9546 18.6387L26.978 18.6196C26.9652 18.6299 26.9559 18.639 26.9531 18.6416C26.9518 18.6429 26.9499 18.6434 26.9487 18.6445L26.9312 18.6621C26.9252 18.6685 26.9189 18.6766 26.9121 18.6841C26.8982 18.6994 26.8802 18.7205 26.8594 18.7441L26.7026 18.9229L25.3462 20.4639C25.2991 20.5173 25.2551 20.5621 25.2188 20.603C25.0796 20.4058 24.885 20.1297 24.6489 19.7944L20.0728 13.2847L19.9614 13.125H12.769Z" fill="white"/>
</g>
<defs>
<clipPath id="clip0_2495_23497">
<rect width="48" height="48" fill="white"/>
</clipPath>
</defs>
</svg>
