<svg width="60" height="60" viewBox="0 0 60 60" fill="none" xmlns="http://www.w3.org/2000/svg">
<path fill-rule="evenodd" clip-rule="evenodd" d="M27.3561 4C28.4069 4.00001 29.3345 4.52589 29.8914 5.32841C31.3441 5.37225 32.7781 5.70205 34.1089 6.3054C35.8063 7.07506 37.2809 8.26278 38.3944 9.75742C39.396 11.102 40.0747 12.6558 40.3844 14.2987C47.3112 17.8077 52.1339 24.868 52.4571 33.0848H52.4748V56H41.8983V52.7901C38.5598 54.8265 34.6374 56 30.4408 56C18.2719 56 8.40694 46.1351 8.40693 33.9661C8.40694 28.5052 10.3935 23.5083 13.6834 19.6587C13.1393 19.2458 12.5435 18.903 11.9097 18.6405C11.3071 18.3909 10.6777 18.2161 10.0356 18.1198C9.65058 19.3846 8.47548 20.3052 7.08478 20.3052C5.38117 20.3052 4.00004 18.924 4 17.2204C4 15.5168 5.38114 14.1357 7.08478 14.1356C7.92931 14.1356 8.69439 14.4752 9.25144 15.0251C10.5603 15.0731 11.8513 15.3536 13.0633 15.8556C14.0542 16.266 14.9779 16.8185 15.8063 17.4935C19.6979 14.0336 24.8241 11.9322 30.4408 11.9322C32.638 11.9322 34.76 12.2538 36.7624 12.8525C36.5429 12.399 36.2804 11.9654 35.9771 11.5583C35.1683 10.4726 34.097 9.60996 32.864 9.05089C32.0087 8.66311 31.0946 8.43006 30.1645 8.35946C29.6793 9.42679 28.6049 10.1695 27.3561 10.1696C25.6524 10.1696 24.2713 8.78842 24.2713 7.08478C24.2713 5.38112 25.6524 4 27.3561 4ZM30.4408 22.5083C24.113 22.5083 18.9834 27.6382 18.9834 33.9661C18.9834 40.2939 24.113 45.4239 30.4408 45.4239C36.7589 45.4239 41.8824 40.3099 41.8983 33.9955V33.9363C41.8956 32.9079 41.7568 31.9116 41.5001 30.9637C40.4498 32.2575 38.8472 33.0848 37.0509 33.0848C33.887 33.0847 31.3222 30.5199 31.3222 27.3561C31.3222 25.5598 32.1488 23.9564 33.4425 22.9061C32.4857 22.647 31.4795 22.5083 30.4408 22.5083Z" fill="white"/>
</svg>
