<svg width="1262" height="140" viewBox="0 0 1262 140" fill="none" xmlns="http://www.w3.org/2000/svg">
<path d="M119.601 140H92.4004L84.8008 109.2H34.8008L27.2002 140H0L36.8008 0H82.8008L119.601 140ZM214.358 122H217.958V0H243.958V140H193.758L165.958 18H162.358V140H136.358V0H186.559L214.358 122ZM369.942 24H329.143V140H302.742V24H261.942V0H369.942V24ZM477.921 24H414.32V57.4004H472.32V81.4004H414.32V116H479.121V140H387.921V0H477.921V24ZM548.062 50.5996H551.663L579.463 0H609.463L568.863 69.4004L609.863 140H579.863L551.663 88.2002H548.062L519.863 140H489.863L530.863 69.4004L490.263 0H520.263L548.062 50.5996ZM41 84.7998H78.6006L61.6006 16.5996H58L41 84.7998Z" fill="white"/>
<path d="M771.464 140H744.264L736.664 109.2H686.664L679.063 140H651.863L688.664 0H734.664L771.464 140ZM866.222 122H869.821V0H895.821V140H845.621L817.821 18H814.222V140H788.222V0H838.422L866.222 122ZM1021.81 24H981.006V140H954.605V24H913.806V0H1021.81V24ZM1129.78 24H1066.18V57.4004H1124.18V81.4004H1066.18V116H1130.98V140H1039.78V0H1129.78V24ZM1199.93 50.5996H1203.53L1231.33 0H1261.33L1220.73 69.4004L1261.73 140H1231.73L1203.53 88.2002H1199.93L1171.73 140H1141.73L1182.73 69.4004L1142.13 0H1172.13L1199.93 50.5996ZM692.863 84.7998H730.464L713.464 16.5996H709.863L692.863 84.7998Z" fill="white"/>
</svg>
