<svg width="512" height="512" viewBox="0 0 512 512" fill="none" xmlns="http://www.w3.org/2000/svg">
<path fill-rule="evenodd" clip-rule="evenodd" d="M233.439 34.1333C242.406 34.1334 250.321 38.6209 255.074 45.4691C267.47 45.8431 279.707 48.6575 291.063 53.806C305.548 60.3738 318.131 70.5091 327.632 83.2633C336.18 94.7373 341.972 107.996 344.614 122.015C403.723 151.959 444.876 212.207 447.634 282.323H447.785V477.867H357.532V450.476C329.044 467.852 295.573 477.867 259.762 477.867C155.92 477.867 71.7396 393.686 71.7396 289.844C71.7396 243.244 88.6912 200.604 116.765 167.754C112.122 164.231 107.038 161.305 101.63 159.065C96.4879 156.935 91.117 155.444 85.6377 154.622C82.352 165.415 72.3246 173.271 60.4572 173.271C45.9198 173.271 34.1342 161.485 34.1338 146.948C34.1338 132.41 45.9196 120.624 60.4572 120.624C67.6639 120.624 74.1926 123.522 78.9461 128.214C90.1152 128.624 101.131 131.017 111.474 135.301C119.93 138.803 127.812 143.518 134.881 149.278C168.089 119.754 211.832 101.821 259.762 101.821C278.511 101.821 296.619 104.566 313.706 109.675C311.833 105.804 309.593 102.105 307.005 98.6309C300.103 89.3664 290.961 82.005 280.44 77.2343C273.141 73.9252 265.341 71.9365 257.404 71.334C253.264 80.4419 244.096 86.78 233.439 86.7802C218.901 86.7802 207.116 74.9945 207.115 60.4567C207.115 45.9188 218.901 34.1333 233.439 34.1333ZM259.762 192.071C205.765 192.071 161.992 235.846 161.992 289.844C161.992 343.842 205.765 387.617 259.762 387.617C313.676 387.617 357.397 343.977 357.532 290.095V289.59C357.51 280.814 356.325 272.312 354.135 264.224C345.172 275.264 331.496 282.323 316.168 282.323C289.17 282.323 267.283 260.437 267.283 233.438C267.283 218.11 274.337 204.428 285.376 195.465C277.212 193.255 268.625 192.071 259.762 192.071Z" fill="white"/>
</svg>
