<svg width="180" height="180" viewBox="0 0 180 180" fill="none" xmlns="http://www.w3.org/2000/svg">
<path fill-rule="evenodd" clip-rule="evenodd" d="M82.0682 12C85.2208 12 88.0034 13.5777 89.6743 15.9852C94.0322 16.1167 98.3343 17.1062 102.327 18.9162C107.419 21.2252 111.843 24.7884 115.183 29.2722C118.188 33.3061 120.224 37.9673 121.153 42.896C141.934 53.4231 156.402 74.6041 157.371 99.2543H157.424V168H125.695V158.37C115.679 164.479 103.912 168 91.3225 168C54.8156 168 25.2208 138.405 25.2208 101.898C25.2208 85.5156 31.1804 70.5248 41.0502 58.976C39.4178 57.7374 37.6305 56.7089 35.7292 55.9214C33.9214 55.1726 32.0332 54.6484 30.1068 54.3593C28.9517 58.1537 25.4264 60.9156 21.2543 60.9156C16.1435 60.9155 12.0001 56.7721 12 51.6613C12 46.5503 16.1434 42.407 21.2543 42.4069C23.7879 42.4069 26.0832 43.4257 27.7543 45.0752C31.681 45.2192 35.5539 46.0607 39.19 47.5667C42.1627 48.7981 44.9336 50.4555 47.4188 52.4804C59.0936 42.1009 74.4722 35.7966 91.3225 35.7965C97.9139 35.7966 104.28 36.7615 110.287 38.5575C109.629 37.1969 108.841 35.8962 107.931 34.6749C105.505 31.4179 102.291 28.8299 98.592 27.1527C96.0261 25.9893 93.2839 25.2902 90.4935 25.0784C89.0378 28.2804 85.8148 30.5086 82.0682 30.5087C76.9573 30.5087 72.8139 26.3653 72.8139 21.2543C72.8139 16.1434 76.9572 12 82.0682 12ZM91.3225 67.5249C72.339 67.5249 56.9503 82.9147 56.9502 101.898C56.9502 120.882 72.339 136.272 91.3225 136.272C110.277 136.272 125.647 120.93 125.695 101.987V101.809C125.687 98.7236 125.27 95.7347 124.5 92.8912C121.349 96.7724 116.541 99.2543 111.153 99.2543C101.661 99.2542 93.9667 91.5598 93.9665 82.0682C93.9665 76.6794 96.4463 71.8693 100.327 68.7182C97.4572 67.9411 94.4385 67.5249 91.3225 67.5249Z" fill="white"/>
</svg>
