<svg width="32" height="32" viewBox="0 0 32 32" fill="none" xmlns="http://www.w3.org/2000/svg">
<path fill-rule="evenodd" clip-rule="evenodd" d="M14.5904 2.1333C15.1508 2.13331 15.6455 2.41377 15.9426 2.84179C16.7173 2.86517 17.4821 3.04106 18.1919 3.36284C19.0972 3.77333 19.8836 4.40679 20.4774 5.20392C21.0117 5.92105 21.3736 6.74972 21.5388 7.62592C25.2331 9.4974 27.8052 13.2629 27.9776 17.6452H27.987V29.8666H22.3462V28.1547C20.5657 29.2407 18.4738 29.8666 16.2356 29.8666C9.74546 29.8666 4.48416 24.6053 4.48415 18.1152C4.48415 15.2027 5.54363 12.5377 7.29827 10.4846C7.00807 10.2644 6.69032 10.0816 6.35231 9.94154C6.03092 9.80843 5.69524 9.71524 5.35278 9.66384C5.14743 10.3384 4.52071 10.8294 3.779 10.8294C2.87041 10.8294 2.13381 10.0928 2.13379 9.18419C2.13379 8.27558 2.8704 7.53899 3.779 7.53898C4.22942 7.53898 4.63746 7.72009 4.93456 8.01333C5.63263 8.03894 6.32114 8.18853 6.96758 8.45628C7.49604 8.67518 7.98866 8.96983 8.43047 9.32981C10.506 7.48457 13.24 6.3638 16.2356 6.3638C17.4074 6.3638 18.5391 6.53534 19.6071 6.85463C19.49 6.61275 19.35 6.38152 19.1882 6.1644C18.7569 5.58537 18.1855 5.12528 17.5279 4.82711C17.0718 4.6203 16.5843 4.496 16.0882 4.45835C15.8294 5.02759 15.2564 5.42372 14.5904 5.42373C13.6817 5.42373 12.9452 4.68713 12.9451 3.77852C12.9451 2.8699 13.6817 2.1333 14.5904 2.1333ZM16.2356 12.0044C12.8607 12.0044 10.125 14.7404 10.1249 18.1152C10.1249 21.4901 12.8607 24.226 16.2356 24.226C19.6052 24.226 22.3377 21.4986 22.3462 18.1309V18.0993C22.3448 17.5508 22.2708 17.0195 22.1339 16.514C21.5737 17.2039 20.7189 17.6452 19.7609 17.6452C18.0735 17.6452 16.7056 16.2773 16.7056 14.5899C16.7056 13.6319 17.1465 12.7767 17.8364 12.2165C17.3262 12.0784 16.7895 12.0044 16.2356 12.0044Z" fill="white"/>
</svg>
