<svg width="134" height="30" viewBox="0 0 134 30" fill="none" xmlns="http://www.w3.org/2000/svg">
<path fill-rule="evenodd" clip-rule="evenodd" d="M103.841 11.5034C105.125 11.5034 106.318 11.7176 107.421 12.1459C108.546 12.5742 109.526 13.1716 110.359 13.9381C111.192 14.7045 111.833 15.6174 112.284 16.6769C112.756 17.7138 112.982 18.8636 112.959 20.1259L112.925 21.7492H97.2319C97.3602 22.5685 97.649 23.3014 98.1005 23.9471C98.7308 24.8488 99.6088 25.5477 100.734 26.0436C101.86 26.5395 103.155 26.7875 104.618 26.7875C105.879 26.7875 106.971 26.6072 107.893 26.2465C108.816 25.8858 109.695 25.3899 110.528 24.7586L112.182 27.2947C111.597 27.7907 110.865 28.2528 109.987 28.6811C109.109 29.0869 108.164 29.4138 107.151 29.6618C106.16 29.8872 105.158 29.9999 104.145 29.9999C102.119 29.9999 100.318 29.6167 98.7421 28.8502C97.1662 28.0612 95.928 26.9904 95.0275 25.6378C94.1494 24.2852 93.7104 22.7298 93.7104 20.9715C93.7104 19.5287 93.9693 18.2324 94.4871 17.0827C95.0049 15.933 95.7138 14.941 96.6143 14.107C97.5373 13.2729 98.6183 12.6304 99.8565 12.1795C101.095 11.7286 102.423 11.5034 103.841 11.5034ZM103.841 14.7158C102.49 14.7158 101.309 14.93 100.295 15.3583C99.3049 15.7866 98.5282 16.4515 97.9654 17.3532C97.6766 17.8233 97.4657 18.3644 97.3312 18.9762H109.413V18.6043C109.323 17.8605 109.008 17.1955 108.468 16.6094C107.927 16.0233 107.252 15.5612 106.442 15.223C105.631 14.8849 104.764 14.7158 103.841 14.7158Z" fill="white"/>
<path fill-rule="evenodd" clip-rule="evenodd" d="M12.1451 0C13.061 0 13.8377 0.594691 14.1122 1.41938C14.8352 1.5329 15.5381 1.75987 16.1942 2.09457C17.173 2.59399 18.0198 3.31836 18.6655 4.20828L18.7841 4.37658C19.282 5.10727 19.6355 5.92579 19.8276 6.78776C24.1801 8.54309 27.2525 12.8105 27.2525 17.7971V29.6619H21.3281V28.0738C19.5852 29.0835 17.5619 29.6619 15.4036 29.6619C8.85962 29.6619 3.55468 24.3497 3.55468 17.7971C3.55468 14.904 4.58924 12.2532 6.30748 10.1942C6.13682 10.0777 5.95879 9.97146 5.77374 9.87704C5.11788 9.54243 4.3953 9.36084 3.66025 9.34494C3.2799 9.79734 2.71038 10.085 2.07356 10.085C0.928363 10.085 0 9.15543 0 8.0087C0 6.86197 0.928363 5.93237 2.07356 5.93237C2.96371 5.93237 3.72267 6.49411 4.01667 7.28279C4.95558 7.34534 5.87381 7.59774 6.71505 8.02694C7.09463 8.22061 7.45419 8.44835 7.79005 8.70623C9.84921 6.97525 12.5046 5.93237 15.4036 5.93237C16.083 5.93237 16.7489 5.99042 17.397 6.10038C17.3008 5.90938 17.1923 5.72432 17.0713 5.54683L16.988 5.42865C16.5347 4.80386 15.9401 4.29533 15.2529 3.94467C14.7628 3.69465 14.2355 3.53026 13.6937 3.45629C13.3139 3.8833 12.7611 4.15266 12.1451 4.15266C10.9999 4.15266 10.0716 3.22306 10.0716 2.07633C10.0716 0.929603 10.9999 0 12.1451 0ZM19.1975 12.6486C18.3194 12.0688 17.2736 11.7978 16.2249 11.8787C15.1761 11.9595 14.1841 12.3875 13.405 13.095C12.6257 13.8025 12.1036 14.7493 11.921 15.7865L16.5885 16.6106L13.3925 20.1153C14.1692 20.8255 15.1599 21.2567 16.2084 21.3412C17.2568 21.4256 18.3035 21.1586 19.1836 20.582C20.0638 20.0053 20.7273 19.1516 21.0697 18.1557C21.4122 17.1599 21.4142 16.0782 21.0752 15.0812C20.7363 14.0842 20.0756 13.2284 19.1975 12.6486Z" fill="white"/>
<path fill-rule="evenodd" clip-rule="evenodd" d="M60.1953 29.6618H56.2443L53.7986 23.9133H42.3209L39.8661 29.6618H36.1177L46.2147 5.9917H50.1658L60.1953 29.6618ZM48.0045 10.0832C47.8244 10.6243 47.6218 11.1766 47.3967 11.7401C47.194 12.3037 46.9914 12.8447 46.7888 13.3631C46.5862 13.8591 46.4061 14.3101 46.2485 14.7159L43.8224 20.3965H52.3024L49.8281 14.5806C49.7155 14.3101 49.5579 13.9155 49.3553 13.397C49.1752 12.856 48.9723 12.281 48.7471 11.6724C48.5223 11.0637 48.3081 10.489 48.1055 9.94797C48.0972 9.92418 48.0886 9.90063 48.0803 9.87728C48.0549 9.94506 48.0303 10.014 48.0045 10.0832Z" fill="white"/>
<path d="M71.6224 11.5371C73.1758 11.5371 74.4703 11.8415 75.5059 12.4501C76.564 13.0362 77.352 13.8818 77.8698 14.9865C78.3876 16.091 78.6465 17.421 78.6465 18.9763V29.6618H75.1682V19.3483C75.1682 18.3973 74.9997 17.5949 74.6635 16.9411L74.5245 16.6833C74.167 16.0493 73.6613 15.5737 73.007 15.2567C72.3316 14.896 71.5324 14.727 70.6094 14.7495C69.8214 14.7495 69.0897 14.8848 68.4143 15.1554C67.7615 15.4259 67.1874 15.7867 66.6921 16.2375C66.1968 16.6884 65.8141 17.1956 65.5439 17.7592C65.2738 18.3002 65.1384 18.8638 65.1384 19.4499V29.6618H61.6602V11.9093H65.1384V14.8775C65.3496 14.6036 65.586 14.3355 65.8479 14.0734C66.5683 13.3295 67.4238 12.7208 68.4143 12.2474C69.4274 11.774 70.4968 11.5371 71.6224 11.5371Z" fill="white"/>
<path d="M88.4969 11.9092H93.6974V15.2905H88.4969V29.6617H85.0187V15.2905H80.5273V11.9092H85.0187V6.97217H88.4969V11.9092Z" fill="white"/>
<path d="M123.449 18.2765L128.416 11.9097H132.873L125.486 20.6895L133.346 29.6622H128.753L123.023 23.0123L117.711 29.6622H113.253L120.919 20.5574L113.49 11.9097H118.218L123.449 18.2765Z" fill="white"/>
</svg>
