<svg width="160" height="31" viewBox="0 0 160 31" fill="none" xmlns="http://www.w3.org/2000/svg">
<path fill-rule="evenodd" clip-rule="evenodd" d="M14.0901 0.845686C13.9561 0.81218 13.7945 0.81218 13.6605 0.845686L4.88311 3.51783L4.87855 3.51935C4.46743 3.65638 4.26612 4.06958 4.36614 4.46965L4.36844 4.47882L4.37167 4.48772C4.50587 4.85678 4.91403 5.10409 5.33276 4.96602L13.8881 2.36567L22.627 5.04448C23.0497 5.18397 23.4581 4.93109 23.59 4.53541C23.7305 4.11368 23.4789 3.70412 23.0814 3.57163L14.0989 0.847888L14.0901 0.845686ZM0.790912 5.43274C0.750402 5.12184 0.918299 4.81718 1.17768 4.66156L1.18665 4.65618L1.19617 4.65185C1.28278 4.61248 1.37323 4.58957 1.46361 4.58227C1.53826 4.57175 1.61609 4.57235 1.69522 4.58553C2.01428 4.63871 2.25293 4.87843 2.31292 5.17606L7.33421 14.9741H20.6414C20.6685 14.9741 20.6952 14.9755 20.7216 14.9784L25.4613 5.19181C25.4982 4.99065 25.6184 4.8152 25.7966 4.71029C26.013 4.56107 26.3038 4.53795 26.5544 4.65185C26.8051 4.76579 26.9477 4.99326 26.9743 5.2386L27.1293 6.14312C27.1647 6.30141 27.316 7.35601 27.316 8.95355C27.316 10.5359 27.1578 12.6186 26.5778 14.9648C26.0241 17.1799 25.0214 19.8455 23.2001 22.4587C21.3787 25.0718 18.7402 27.6567 14.9448 29.6864L14.9436 29.687L14.2413 30.0772L14.2403 30.0778C14.0012 30.2139 13.7493 30.2139 13.5102 30.0778L13.5092 30.0772L12.8069 29.687L12.8057 29.6864C9.01028 27.6567 6.37182 25.0718 4.55048 22.4587C2.72969 19.8463 1.72651 17.181 1.22459 14.9367C0.644992 12.5912 0.486877 10.483 0.486877 8.92737C0.486877 7.32985 0.638139 6.27527 0.67361 6.11696L0.790912 5.43274ZM8.1117 16.4912H19.9145L13.8917 27.7697L8.1117 16.4912ZM2.02741 7.93808C2.01413 8.23388 2.00544 8.56537 2.00544 8.92737C2.00544 10.3828 2.13544 12.3826 2.68053 14.5629C3.19977 16.6658 4.1342 19.1313 5.82046 21.57C7.25869 23.6275 9.24488 25.6865 12.0226 27.4403L2.02741 7.93808ZM15.7937 27.4112C18.5368 25.6687 20.527 23.6368 21.9561 21.5703C23.6422 19.1319 24.5767 16.6406 25.0961 14.5629C25.6413 12.3826 25.7713 10.3828 25.7713 8.92737C25.7713 8.60432 25.7643 8.30557 25.7534 8.03478L22.0811 15.6172V15.6472L15.7937 27.4112Z" fill="white"/>
<path fill-rule="evenodd" clip-rule="evenodd" d="M13.7366 1.37552L5.1315 3.99522L5.13039 3.99559C4.87235 4.08159 4.73952 4.33776 4.80341 4.60231C4.89316 4.84228 5.1523 4.98624 5.40493 4.90293L5.40796 4.90194L13.8885 2.32434L22.5487 4.97905L22.5515 4.97997C22.8035 5.06314 23.0645 4.92002 23.154 4.65161C23.2381 4.39902 23.0955 4.13838 22.8294 4.04798L14.0224 1.3775L14.0203 1.37696C13.9341 1.3554 13.8239 1.35493 13.7366 1.37552ZM14.1524 0.852863L14.1676 0.856662L22.9948 3.53331L22.9983 3.53448C23.5105 3.70519 23.8602 4.24754 23.6687 4.82188C23.4996 5.32938 22.9604 5.68238 22.3838 5.49388L13.8878 2.8895L5.57216 5.41699C5.00546 5.60187 4.46665 5.26296 4.29174 4.78194L4.28378 4.76005L4.27813 4.73747C4.14832 4.21823 4.41065 3.66568 4.95824 3.48316L4.9661 3.48053L13.592 0.854524L13.5986 0.852863C13.7735 0.809137 13.9775 0.809136 14.1524 0.852863ZM1.66228 4.51411C1.76048 4.50109 1.86203 4.50241 1.96433 4.51947C2.37575 4.58803 2.68985 4.89071 2.78312 5.27327L7.62087 14.7131H20.4275L24.9893 5.29387C25.0465 5.04026 25.203 4.8181 25.4311 4.68077C25.7247 4.48259 26.108 4.45713 26.4339 4.60524C26.7722 4.75901 26.9643 5.06605 27.0021 5.38919L27.152 6.26348C27.1949 6.46533 27.3401 7.51517 27.3401 9.07356C27.3401 10.6445 27.1831 12.711 26.6077 15.0388C26.058 17.2376 25.062 19.8866 23.2515 22.4843C21.4408 25.0821 18.8195 27.649 15.0542 29.6626L15.0524 29.6637L14.3698 30.0428L14.3688 30.0434C14.0506 30.2246 13.7006 30.2248 13.3825 30.0436L13.3813 30.0429L12.6984 29.6636L12.6973 29.6629C8.9321 27.6493 6.31013 25.0821 4.49947 22.4843C2.69036 19.8886 1.693 17.2402 1.1935 15.0083C0.618998 12.6822 0.462219 10.5918 0.462219 9.04787C0.462219 7.48954 0.60743 6.43973 0.650398 6.23782L0.758231 5.60883C0.723653 5.20322 0.945645 4.8247 1.27159 4.62914L1.29366 4.61589L1.3171 4.60524C1.42844 4.55464 1.54513 4.52449 1.66228 4.51411ZM1.87481 5.05242C1.82454 5.04404 1.77605 5.04379 1.7302 5.05025L1.72221 5.05138L1.71417 5.05202C1.65818 5.05655 1.60176 5.07048 1.54706 5.09469C1.37809 5.19842 1.27654 5.39593 1.30088 5.58279L1.30613 5.62304L1.18298 6.34137L1.18149 6.34803C1.15262 6.47685 1.00471 7.49039 1.00471 9.04787C1.00471 10.5574 1.1582 12.6046 1.72098 14.882L1.72169 14.8849L1.72235 14.8878C2.20844 17.0613 3.18043 19.6442 4.94509 22.1761C6.70999 24.7083 9.2683 27.2158 12.954 29.1868L12.9589 29.1895L13.6509 29.574L13.6518 29.5745C13.803 29.6607 13.9479 29.6607 14.0992 29.5745L14.1027 29.5725L14.7959 29.1874L14.7971 29.1868C18.4826 27.2158 21.041 24.7083 22.8059 22.1761C24.5711 19.6435 25.5435 17.0589 26.0811 14.9089C26.6441 12.631 26.7976 10.609 26.7976 9.07356C26.7976 7.51606 26.6497 6.50252 26.6209 6.37372L26.6194 6.36706L26.4645 5.46419L26.4637 5.45584C26.4469 5.30059 26.3594 5.16533 26.2087 5.09683C26.0455 5.02268 25.8621 5.04077 25.7318 5.13055L25.7238 5.13608L25.7154 5.14102C25.6097 5.20323 25.5376 5.30745 25.5151 5.42968L25.5084 5.46558L20.7569 15.2766L20.5667 15.2561C20.5504 15.2544 20.5339 15.2534 20.517 15.2534H7.28871L2.26732 5.45528L2.25996 5.41878C2.223 5.23541 2.07584 5.08592 1.87481 5.05242ZM2.02053 7.04334L12.7496 27.9773L11.9117 27.4483C9.15233 25.706 7.17705 23.6591 5.7463 21.6122L5.74551 21.6111C4.06829 19.1855 3.13936 16.7339 2.62342 14.6445C2.0817 12.4774 1.95283 10.4916 1.95283 9.04787C1.95283 8.68823 1.96147 8.35881 1.97468 8.06472L2.02053 7.04334ZM25.7625 7.08034L25.8061 8.16087C25.8169 8.43004 25.8238 8.72692 25.8238 9.04787C25.8238 10.4917 25.6949 12.4778 25.1531 14.645C24.6372 16.7085 23.7085 19.1855 22.0309 21.6114C20.6081 23.669 18.6283 25.689 15.9045 27.4194L15.0341 27.9724L21.6591 15.5767V15.5529L25.7625 7.08034ZM2.49558 9.15862C2.50213 10.5617 2.63533 12.456 3.14995 14.5144C3.65335 16.5532 4.55898 18.9424 6.19191 21.304C7.43191 23.0779 9.09292 24.8538 11.3434 26.4222L2.49558 9.15862ZM22.2016 15.6764V15.7115L16.5069 26.3665C18.7125 24.8174 20.3614 23.0731 21.5841 21.3049C23.217 18.9436 24.1228 16.5297 24.6267 14.5144C25.1218 12.5341 25.2638 10.7059 25.2797 9.32065L22.2016 15.6764ZM7.77497 16.2023H20.2552L13.8867 28.128L7.77497 16.2023ZM8.66093 16.7427L13.8966 26.9588L19.3521 16.7427H8.66093Z" fill="white"/>
<path d="M14.0863 1.11491L14.1524 0.852863M14.1524 0.852863C13.9775 0.809136 13.7735 0.809137 13.5986 0.852863L13.592 0.854524L4.9661 3.48053L4.95824 3.48316C4.41065 3.66568 4.14832 4.21823 4.27813 4.73747L4.28378 4.76005L4.29174 4.78194C4.46665 5.26296 5.00546 5.60187 5.57216 5.41699L13.8878 2.8895L22.3838 5.49388C22.9604 5.68238 23.4996 5.32938 23.6687 4.82188C23.8602 4.24754 23.5105 3.70519 22.9983 3.53448L22.9948 3.53331L14.1676 0.856662L14.1524 0.852863ZM1.3171 4.60524L1.42971 4.85103M1.3171 4.60524C1.42844 4.55464 1.54513 4.52449 1.66228 4.51411C1.76048 4.50109 1.86203 4.50241 1.96433 4.51947C2.37575 4.58803 2.68985 4.89071 2.78312 5.27327L7.62087 14.7131H20.4275L24.9893 5.29387C25.0465 5.04026 25.203 4.8181 25.4311 4.68077C25.7247 4.48259 26.108 4.45713 26.4339 4.60524C26.7722 4.75901 26.9643 5.06605 27.0021 5.38919L27.152 6.26348C27.1949 6.46533 27.3401 7.51517 27.3401 9.07356C27.3401 10.6445 27.1831 12.711 26.6077 15.0388C26.058 17.2376 25.062 19.8866 23.2515 22.4843C21.4408 25.0821 18.8195 27.649 15.0542 29.6626L15.0524 29.6637L14.3698 30.0428L14.3688 30.0434C14.0506 30.2246 13.7006 30.2248 13.3825 30.0436L13.3813 30.0429L12.6984 29.6636L12.6973 29.6629C8.9321 27.6493 6.31013 25.0821 4.49947 22.4843C2.69036 19.8886 1.693 17.2402 1.1935 15.0083C0.618998 12.6822 0.462219 10.5918 0.462219 9.04787C0.462219 7.48954 0.60743 6.43973 0.650398 6.23782L0.758231 5.60883C0.723653 5.20322 0.945645 4.8247 1.27159 4.62914L1.29366 4.61589L1.3171 4.60524ZM1.43076 4.85333L1.46696 4.93235M5.1315 3.99522L13.7366 1.37552C13.8239 1.35493 13.9341 1.3554 14.0203 1.37696L14.0224 1.3775L22.8294 4.04798C23.0955 4.13838 23.2381 4.39902 23.154 4.65161C23.0645 4.92002 22.8035 5.06314 22.5515 4.97997L22.5487 4.97905L13.8885 2.32434L5.40796 4.90194L5.40493 4.90293C5.1523 4.98624 4.89316 4.84228 4.80341 4.60231C4.73952 4.33776 4.87236 4.08159 5.13039 3.99559L5.1315 3.99522ZM1.7302 5.05025C1.77605 5.04379 1.82454 5.04404 1.87481 5.05242C2.07584 5.08592 2.223 5.23541 2.25996 5.41878L2.26732 5.45528L7.28871 15.2534H20.517C20.5339 15.2534 20.5504 15.2544 20.5667 15.2561L20.7569 15.2766L25.5085 5.46558L25.5151 5.42968C25.5376 5.30745 25.6097 5.20323 25.7154 5.14102L25.7238 5.13608L25.7318 5.13055C25.8621 5.04077 26.0455 5.02268 26.2087 5.09683C26.3594 5.16533 26.4469 5.30059 26.4637 5.45584L26.4645 5.46419L26.6194 6.36706L26.6209 6.37372C26.6497 6.50252 26.7976 7.51606 26.7976 9.07356C26.7976 10.609 26.6441 12.631 26.0811 14.9089C25.5435 17.0589 24.5711 19.6435 22.8059 22.1761C21.041 24.7083 18.4826 27.2158 14.7971 29.1868L14.7959 29.1874L14.1027 29.5725L14.1 29.5741C13.9487 29.6603 13.803 29.6607 13.6518 29.5745L13.6509 29.574L12.9589 29.1895L12.954 29.1868C9.2683 27.2158 6.70999 24.7083 4.94509 22.1761C3.18043 19.6442 2.20844 17.0613 1.72235 14.8878L1.72169 14.8849L1.72098 14.882C1.1582 12.6046 1.00471 10.5574 1.00471 9.04787C1.00471 7.49039 1.15262 6.47685 1.18149 6.34803L1.18298 6.34137L1.30613 5.62304L1.30088 5.58279C1.27654 5.39593 1.37809 5.19842 1.54706 5.09469C1.60176 5.07048 1.65818 5.05655 1.71417 5.05202L1.72221 5.05138L1.7302 5.05025ZM2.02053 7.04334L1.97468 8.06472C1.96147 8.35881 1.95283 8.68823 1.95283 9.04787C1.95283 10.4916 2.0817 12.4774 2.62342 14.6445C3.13936 16.7339 4.06829 19.1855 5.74551 21.6111L5.7463 21.6122C7.17705 23.6591 9.15233 25.706 11.9117 27.4483L12.7496 27.9773L2.02053 7.04334ZM25.8061 8.16087L25.7625 7.08034L21.6591 15.5529V15.5767L15.0341 27.9724L15.9045 27.4194C18.6283 25.689 20.6081 23.669 22.0309 21.6114C23.7084 19.1855 24.6372 16.7085 25.1531 14.645C25.6949 12.4778 25.8238 10.4917 25.8238 9.04787C25.8238 8.72692 25.8169 8.43004 25.8061 8.16087ZM3.14995 14.5144C2.63533 12.456 2.50213 10.5617 2.49558 9.15862L11.3434 26.4222C9.09292 24.8538 7.43191 23.0779 6.19191 21.304C4.55898 18.9424 3.65335 16.5532 3.14995 14.5144ZM22.2016 15.7115V15.6764L25.2797 9.32065C25.2638 10.7059 25.1218 12.5341 24.6267 14.5144C24.1228 16.5297 23.217 18.9436 21.5841 21.3049C20.3614 23.0731 18.7125 24.8174 16.5069 26.3665L22.2016 15.7115ZM7.77497 16.2023H20.2552L13.8867 28.128L7.77497 16.2023ZM13.8966 26.9588L8.66093 16.7427H19.3521L13.8966 26.9588Z" stroke="white" stroke-width="0.369543" stroke-miterlimit="10"/>
<path d="M53.5314 9.82827H41.4058C41.1924 9.82827 41.0146 9.89947 40.8368 10.0772C40.6946 10.2195 40.5879 10.4328 40.5879 10.6461V20.3535C40.5879 20.5669 40.6591 20.7447 40.8368 20.9224C40.979 21.0647 41.1924 21.1713 41.4058 21.1713H53.5314V22.807H41.4058C40.7302 22.807 40.1612 22.5581 39.6989 22.0959C39.2366 21.6337 38.9877 21.0647 38.9877 20.3891V10.6106C38.9877 9.93498 39.2366 9.36605 39.6989 8.90379C40.1612 8.44154 40.7302 8.19263 41.4058 8.19263H53.5314V9.82827Z" fill="white"/>
<path d="M53.0075 22.4377H53.1603V22.2855V21.6936V21.5414H53.0075H41.4058C41.0763 21.5414 40.7724 21.3821 40.5739 21.1837C40.3313 20.9411 40.2168 20.6712 40.2168 20.3538V10.6464C40.2168 10.3183 40.3754 10.0151 40.5739 9.81666C40.8165 9.57399 41.0871 9.45893 41.4058 9.45893H53.0075H53.1603V9.30672V8.71489V8.56266H53.0075H41.4058C40.8326 8.56266 40.3573 8.76975 39.9619 9.16507C39.5666 9.56032 39.359 10.0364 39.359 10.6109V20.3894C39.359 20.9639 39.5666 21.44 39.9619 21.8353C40.3573 22.2306 40.8326 22.4377 41.4058 22.4377H53.0075ZM39.436 8.6432C39.9652 8.11394 40.6278 7.82324 41.4058 7.82324H53.9027V10.1983H41.4058C41.3658 10.1983 41.3136 10.2009 41.255 10.2259C41.199 10.2497 41.1498 10.2885 41.0998 10.3384C41.0537 10.3846 41.0197 10.4379 40.997 10.4883C40.9751 10.5367 40.9591 10.5928 40.9591 10.6464V20.3538C40.9591 20.3952 40.962 20.4476 40.987 20.5063C41.011 20.5624 41.0498 20.6118 41.0998 20.6619C41.1461 20.7081 41.1991 20.7419 41.2492 20.7645C41.2971 20.786 41.3528 20.802 41.4058 20.802H53.9027V23.1771H41.4058C40.6278 23.1771 39.9652 22.8864 39.436 22.3571C38.9067 21.8279 38.6167 21.1661 38.6167 20.3894V10.6109C38.6167 9.83427 38.9067 9.17241 39.436 8.6432Z" fill="white" stroke="white" stroke-width="0.312331" stroke-miterlimit="10"/>
<path d="M76.2893 8.19263V9.82827H64.626V14.6642H74.0136V16.3355H64.626V21.1713H76.2893V22.807H62.9902V8.22819H76.2893V8.19263Z" fill="white"/>
<path d="M65.1498 10.1979H64.997V10.3501V14.1422V14.2945H65.1498H74.3846V16.7051H65.1498H64.997V16.8574V20.6494V20.8016H65.1498H76.6605V23.1767H62.619V7.8584H76.6605V8.19255V10.1979H65.1498ZM75.9182 8.75005V8.59782H75.7653H63.5142H63.3614V8.75005V22.2851V22.4373H63.5142H75.7653H75.9182V22.2851V21.6932V21.541H75.7653H64.2547V15.9657H73.4895H73.6423V15.8135V15.1861V15.0339H73.4895H64.2547V9.45853H75.7653H75.9182V9.30632V8.75005Z" fill="white" stroke="white" stroke-width="0.312331" stroke-miterlimit="10"/>
<path d="M100.328 10.6106V14.8776C100.328 15.5532 100.079 16.1221 99.6165 16.5844C99.1541 17.0466 98.5849 17.2955 97.9097 17.2955H95.6696L100.257 22.7359H98.0875L93.5004 17.3311H88.1662C88.0596 17.3311 87.775 17.2956 87.3839 17.26V22.7715H85.7482V8.19263H97.9097C98.5849 8.19263 99.1541 8.44154 99.6165 8.90379C100.079 9.36605 100.328 9.93498 100.328 10.6106ZM88.1662 15.6599H97.8738C98.0875 15.6599 98.2653 15.5888 98.4071 15.4466C98.5499 15.3043 98.6208 15.1264 98.6208 14.9131V10.6461C98.6208 10.4328 98.5499 10.255 98.4071 10.0772C98.2653 9.93498 98.0875 9.82827 97.8738 9.82827H88.1662C87.9529 9.82827 87.775 9.89947 87.5973 10.0772C87.455 10.2195 87.3484 10.4328 87.3484 10.6461V14.9131C87.3484 15.1264 87.4195 15.3043 87.5973 15.4466C87.7395 15.5888 87.9529 15.6599 88.1662 15.6599Z" fill="white"/>
<path d="M96.6763 17.9157L101.052 23.106H97.9151L93.3732 17.7551L93.3281 17.7011H93.2572H88.166C88.1069 17.7011 88.0197 17.694 87.9224 17.6847L87.7549 17.6686V17.8363V23.1415H85.3769V7.82324H97.9096C98.687 7.82324 99.3502 8.11393 99.8789 8.6432C100.409 9.17241 100.699 9.83427 100.699 10.6109V14.8779C100.699 15.6545 100.409 16.3164 99.8789 16.8456C99.3502 17.3749 98.687 17.6656 97.9096 17.6656H96.7932H96.4653L96.6763 17.9157ZM86.1192 22.2499V22.4021H86.2721H86.8597H87.0125V22.2499V16.8553L87.4175 16.8921C87.5691 16.9059 87.7059 16.9198 87.8206 16.9314L87.9186 16.9413C87.9851 16.948 88.0399 16.9532 88.084 16.9569C88.106 16.9586 88.1239 16.9599 88.1385 16.9607L88.1564 16.9615L88.1619 16.9616L88.1637 16.9617H88.1648H88.1661H93.6726L98.2136 22.3126L98.2596 22.3666H98.3306H99.1319H99.4598L99.2489 22.1164L94.8728 16.9261H97.9096C98.4825 16.9261 98.9578 16.719 99.353 16.3238C99.7481 15.9285 99.9563 15.4525 99.9563 14.8779V10.6109C99.9563 10.0364 99.7481 9.56032 99.353 9.16507C98.9578 8.76975 98.4825 8.56266 97.9096 8.56266H86.2721H86.1192V8.71489V22.2499ZM87.3526 15.7258L87.3454 15.7193C87.0837 15.5008 86.977 15.2177 86.977 14.9134V10.6464C86.977 10.3183 87.1356 10.0151 87.3341 9.81666C87.5768 9.57399 87.8474 9.45893 88.166 9.45893H97.8737C98.2209 9.45893 98.4871 9.6339 98.6704 9.81666L98.6843 9.83116L98.6971 9.84712C98.8832 10.0793 98.9919 10.3363 98.9919 10.6464V14.9134C98.9919 15.2179 98.886 15.4915 98.6704 15.7077C98.454 15.924 98.1795 16.0299 97.8737 16.0299H88.166C87.8862 16.0299 87.5785 15.9402 87.3526 15.7258ZM87.8295 15.1586L87.8456 15.1714L87.86 15.1859C87.9164 15.2422 88.0256 15.2904 88.166 15.2904H97.8737C97.929 15.2904 97.9805 15.2832 98.0294 15.2636C98.0791 15.2436 98.115 15.2147 98.1445 15.1859C98.173 15.1569 98.2025 15.1202 98.2219 15.0702C98.2421 15.0214 98.2495 14.9692 98.2495 14.9134V10.6464C98.2495 10.5413 98.2219 10.4483 98.138 10.3357L98.1298 10.3241L98.1187 10.3143C98.0257 10.2291 97.9446 10.1983 97.8737 10.1983H88.166C88.126 10.1983 88.0738 10.2009 88.0151 10.2259C87.9593 10.2497 87.91 10.2885 87.86 10.3384C87.8139 10.3846 87.7799 10.4379 87.7572 10.4883C87.7354 10.5367 87.7194 10.5928 87.7194 10.6464V14.9134C87.7194 14.979 87.7302 15.0234 87.7447 15.0556C87.7585 15.0864 87.7823 15.1208 87.8295 15.1586Z" fill="white"/>
<path d="M88.1385 16.9607C88.1239 16.9599 88.106 16.9586 88.084 16.9569C88.0399 16.9532 87.9851 16.948 87.9186 16.9413L87.8206 16.9314C87.7059 16.9198 87.5691 16.9059 87.4175 16.8921L87.0125 16.8553V22.2499V22.4021H86.8597H86.2721H86.1192V22.2499V8.71489V8.56266H86.2721H97.9096C98.4825 8.56266 98.9578 8.76975 99.353 9.16507C99.7481 9.56032 99.9563 10.0364 99.9563 10.6109V14.8779C99.9563 15.4525 99.7481 15.9285 99.353 16.3238C98.9578 16.719 98.4825 16.9261 97.9096 16.9261H94.8728L99.2489 22.1164L99.4598 22.3666H99.1319H98.3306H98.2596L98.2136 22.3126L93.6726 16.9617H88.1661H88.1648M88.1385 16.9607L88.1469 16.8114M88.1385 16.9607L88.1564 16.9615L88.1619 16.9616L88.1637 16.9617H88.1648M88.1648 16.9617L88.1661 16.8095M98.6704 9.81666C98.4871 9.6339 98.2209 9.45893 97.8737 9.45893H88.166C87.8474 9.45893 87.5768 9.57399 87.3341 9.81666C87.1356 10.0151 86.977 10.3183 86.977 10.6464V14.9134C86.977 15.2177 87.0837 15.5008 87.3454 15.7193L87.3526 15.7258C87.5785 15.9402 87.8862 16.0299 88.166 16.0299H97.8737C98.1795 16.0299 98.454 15.924 98.6704 15.7077C98.886 15.4915 98.9919 15.2179 98.9919 14.9134V10.6464C98.9919 10.3363 98.8832 10.0793 98.6971 9.84712M98.6704 9.81666L98.7745 9.71289M98.6704 9.81666L98.6843 9.83116L98.6971 9.84712M98.6971 9.84712L98.8169 9.75225M87.8295 15.1586L87.924 15.0414M87.8295 15.1586L87.8456 15.1714L87.86 15.1859C87.9164 15.2422 88.0256 15.2904 88.166 15.2904H97.8737C97.929 15.2904 97.9805 15.2832 98.0294 15.2636C98.0791 15.2436 98.115 15.2147 98.1445 15.1859C98.173 15.1569 98.2025 15.1202 98.2219 15.0702C98.2421 15.0214 98.2495 14.9692 98.2495 14.9134V10.6464C98.2495 10.5413 98.2219 10.4483 98.138 10.3357L98.1298 10.3241L98.1187 10.3143C98.0257 10.2291 97.9446 10.1983 97.8737 10.1983H88.166C88.126 10.1983 88.0738 10.2009 88.0151 10.2259C87.9593 10.2497 87.91 10.2885 87.86 10.3384C87.8139 10.3846 87.7799 10.4379 87.7572 10.4883C87.7354 10.5367 87.7194 10.5928 87.7194 10.6464V14.9134C87.7194 14.979 87.7302 15.0234 87.7447 15.0556M87.8295 15.1586C87.7823 15.1208 87.7585 15.0864 87.7447 15.0556M87.7447 15.0556L87.8739 14.9979M96.6763 17.9157L101.052 23.106H97.9151L93.3732 17.7551L93.3281 17.7011H93.2572H88.166C88.1069 17.7011 88.0197 17.694 87.9224 17.6847L87.7549 17.6686V17.8363V23.1415H85.3769V7.82324H97.9096C98.687 7.82324 99.3502 8.11393 99.8789 8.6432C100.409 9.17241 100.699 9.83427 100.699 10.6109V14.8779C100.699 15.6545 100.409 16.3164 99.8789 16.8456C99.3502 17.3749 98.687 17.6656 97.9096 17.6656H96.7932H96.4653L96.6763 17.9157Z" stroke="white" stroke-width="0.312331" stroke-miterlimit="10"/>
<path d="M109.039 8.19263H123.618V9.82827H117.147V22.7715H115.511V9.82827H109.039V8.19263Z" fill="white"/>
<path d="M117.671 10.1983H117.518V10.3505V23.1415H115.14V10.3505V10.1983H114.987H108.668V7.82324H123.99V10.1983H117.671ZM109.41 9.30672V9.45893H109.563H115.882V22.2499V22.4021H116.035H116.623H116.776V22.2499V9.45893H123.094H123.247V9.30672V8.71489V8.56266H123.094H109.563H109.41V8.71489V9.30672Z" fill="white" stroke="white" stroke-width="0.312331" stroke-miterlimit="10"/>
<path d="M132.437 22.7715V8.19263H134.073V22.7715H132.437Z" fill="white"/>
<path d="M132.808 22.2499V22.4021H132.961H133.549H133.702V22.2499V8.71489V8.56266H133.549H132.961H132.808V8.71489V22.2499ZM132.066 23.1415V7.82324H134.444V23.1415H132.066Z" fill="white" stroke="white" stroke-width="0.312331" stroke-miterlimit="10"/>
<path d="M155.977 8.19263H158.075L151.994 15.4821L158.111 22.7715H155.977L150.537 16.2999H145.843V22.7715H144.172V8.19263H145.843V14.6642H150.537L155.977 8.19263Z" fill="white"/>
<path d="M155.804 7.82324H158.867L152.559 15.3841L152.478 15.4817L152.56 15.5791L158.904 23.1415H155.804L150.409 16.7245L150.363 16.67H150.292H146.367H146.214V16.8222V23.1415H143.8V7.82324H146.214V14.1426V14.2949H146.367H150.292H150.363L150.409 14.2404L155.804 7.82324ZM144.543 22.2499V22.4021H144.696H145.319H145.472V22.2499V15.9305H150.71L156.105 22.3476L156.15 22.4021H156.222H156.99H157.317L157.107 22.1523L151.512 15.4831L157.076 8.81218L157.284 8.56266H156.959H156.222H156.15L156.105 8.61716L150.71 15.0343H145.472V8.71489V8.56266H145.319H144.696H144.543V8.71489V22.2499Z" fill="white" stroke="white" stroke-width="0.312331" stroke-miterlimit="10"/>
</svg>
