<svg width="195" height="59" viewBox="0 0 195 59" fill="none" xmlns="http://www.w3.org/2000/svg">
<path d="M81.6416 24.2828C81.1433 22.3381 79.8861 20.9148 77.4202 20.9148C73.789 20.9148 72.2711 24.1167 72.2711 27.3645C72.2711 30.6124 73.789 33.8168 77.4202 33.8168C80.0522 33.8168 81.5087 31.8492 81.7362 29.3833H84.6314C84.3937 33.4386 81.5241 36.2367 77.4202 36.2367C72.3427 36.2367 69.3069 32.2044 69.3069 27.3645C69.3069 22.5247 72.3427 18.4949 77.4202 18.4949C81.2379 18.5179 84.2506 20.6286 84.6058 24.2828H81.6416ZM86.3869 29.6899C86.3869 25.9438 88.6407 23.2376 92.5786 23.2376C96.5164 23.2376 98.7676 25.9438 98.7676 29.6899C98.7676 33.4361 96.5138 36.1652 92.5786 36.1652C88.6433 36.1652 86.3869 33.4616 86.3869 29.6899ZM96.0641 29.6899C96.0641 27.5792 94.9959 25.3739 92.5786 25.3739C90.1612 25.3739 89.0905 27.5792 89.0905 29.6899C89.0905 31.8006 90.1586 34.034 92.5786 34.034C94.9985 34.034 96.0641 31.8262 96.0641 29.6899ZM101.093 18.8986H103.797V21.454H101.093V18.8986ZM101.093 23.5698H103.797V35.8356H101.093V23.5698ZM106.74 23.5698H109.296V25.3739L109.344 25.4199C109.733 24.7526 110.29 24.1994 110.96 23.8163C111.63 23.4332 112.39 23.2336 113.162 23.2376C115.82 23.2376 117.506 24.661 117.506 27.4131V35.8458H114.805V28.126C114.757 26.2044 113.998 25.3739 112.408 25.3739C110.607 25.3739 109.444 26.7972 109.444 28.5988V35.833H106.74V23.5698ZM135.514 35.833H133.615L133.165 33.8424C131.576 35.6439 130.127 36.2367 128.055 36.2367C122.977 36.2367 119.941 32.2044 119.941 27.3645C119.941 22.5247 122.977 18.4949 128.055 18.4949C131.755 18.4949 134.862 20.4625 135.312 24.2828H132.429C132.143 22.0519 130.199 20.9148 128.065 20.9148C124.436 20.9148 122.916 24.1167 122.916 27.3645C122.916 30.6124 124.436 33.8168 128.065 33.8168C131.101 33.8654 132.762 32.0281 132.808 29.1686H128.303V26.9148H135.514V35.833ZM140.471 30.4029C140.471 32.3245 141.514 34.0315 143.768 34.0315C145.334 34.0315 146.282 33.3441 146.757 31.9872H149.313C148.72 34.6678 146.443 36.1601 143.762 36.1601C139.929 36.1601 137.762 33.4795 137.762 29.7078C137.762 26.2223 140.039 23.2325 143.691 23.2325C147.557 23.2325 149.931 26.7206 149.479 30.3875L140.471 30.4029ZM146.78 28.6141C146.686 26.9071 145.523 25.3662 143.696 25.3662C141.823 25.3662 140.543 26.7896 140.471 28.6141H146.78ZM159.828 27.6737C159.613 26.1788 158.522 25.3739 157.017 25.3739C155.619 25.3739 153.649 26.1098 153.649 29.833C153.649 31.8773 154.551 34.0315 156.9 34.0315C158.466 34.0315 159.557 32.9889 159.818 31.2333H162.521C162.01 34.4097 160.055 36.1652 156.9 36.1652C153.067 36.1652 150.946 33.4386 150.946 29.833C150.946 26.1328 152.962 23.2376 156.994 23.2376C159.841 23.2376 162.261 24.661 162.521 27.6737H159.828ZM164.808 18.8986H167.515V28.5272L172.413 23.5698H175.735L171.038 28.0775L176.187 35.833H172.873L169.127 29.879L167.515 31.4454V35.833H164.808V18.8986ZM176.908 29.6899C176.908 25.9438 179.162 23.2376 183.097 23.2376C187.032 23.2376 189.279 25.9438 189.279 29.6899C189.279 33.4361 187.025 36.1652 183.087 36.1652C179.149 36.1652 176.908 33.4616 176.908 29.6899ZM186.585 29.6899C186.585 27.5792 185.517 25.3739 183.097 25.3739C180.677 25.3739 179.612 27.5792 179.612 29.6899C179.612 31.8006 180.68 34.034 183.097 34.034C185.514 34.034 186.585 31.8262 186.585 29.6899Z" fill="white"/>
<path d="M54.2989 29.391C54.32 34.1876 52.9184 38.8827 50.2712 42.8828C47.6241 46.8828 43.8502 50.0081 39.4269 51.8633C35.0036 53.7186 30.1294 54.2206 25.4208 53.3058C20.7122 52.3911 16.3806 50.1006 12.9737 46.7241C9.56681 43.3476 7.23765 39.0366 6.28074 34.3364C5.32383 29.6362 5.78215 24.7577 7.59775 20.318C9.41334 15.8782 12.5047 12.0765 16.4808 9.39364C20.457 6.71074 25.1394 5.26713 29.936 5.24536C36.3686 5.21683 42.549 7.74464 47.1179 12.2728C51.6867 16.8009 54.2698 22.9584 54.2989 29.391Z" fill="#8DC63F"/>
<path d="M52.4721 29.3969C52.4923 33.8322 51.1968 38.1739 48.7494 41.873C46.302 45.5721 42.8127 48.4624 38.7227 50.1784C34.6327 51.8943 30.1257 52.359 25.7716 51.5135C21.4176 50.668 17.412 48.5504 14.2614 45.4284C11.1109 42.3065 8.95683 38.3204 8.0717 33.9742C7.18657 29.628 7.6101 25.117 9.28874 21.0115C10.9674 16.906 13.8257 13.3905 17.5023 10.9095C21.1789 8.42853 25.5087 7.09349 29.944 7.07323C32.889 7.05978 35.8079 7.62653 38.5338 8.74112C41.2598 9.85571 43.7396 11.4963 45.8315 13.5693C47.9234 15.6422 49.5866 18.1069 50.726 20.8226C51.8654 23.5383 52.4587 26.4519 52.4721 29.3969Z" fill="#F9E988"/>
<path d="M30.4547 8.52681C31.8804 8.27231 33.3399 8.27231 34.7656 8.52681C36.205 8.75489 37.5962 9.22124 38.8823 9.90671C40.16 10.6094 41.2664 11.5626 42.3653 12.4621C43.4641 13.3616 44.5603 14.2713 45.6029 15.273C46.666 16.2579 47.594 17.3792 48.3627 18.6077C49.1553 19.8279 49.8044 21.1356 50.2971 22.5046C51.2558 25.2392 51.5287 28.1673 51.0918 31.0319H50.9487C50.5278 28.2952 49.8239 25.6096 48.8482 23.0183C48.3806 21.7368 47.83 20.4871 47.2 19.2772C46.5379 18.0708 45.8093 16.9021 45.0177 15.7764C44.2102 14.637 43.2209 13.6382 42.0893 12.8198C40.9521 12.0098 39.6438 11.4834 38.3763 10.9851C37.1089 10.4868 35.8414 9.99103 34.5254 9.61028C33.2094 9.22954 31.8627 8.94589 30.4598 8.66991L30.4547 8.52681Z" fill="white"/>
<path d="M41.4172 21.4752C39.7894 21.0024 38.0952 20.3355 36.3934 19.6609C36.2963 19.2316 35.9155 18.6975 35.1489 18.0459C34.0322 17.0774 31.9368 17.1029 30.1251 17.5348C28.1268 17.0646 26.1515 16.8985 24.2477 17.3534C8.74946 21.6208 17.5399 32.0544 11.8466 42.5313C12.6566 44.2485 21.3883 54.286 34.022 51.585C34.022 51.585 29.7034 41.2026 39.4521 36.2196C47.361 32.1642 53.0773 24.6566 41.4172 21.4752Z" fill="#8BC53F"/>
<path d="M43.332 28.3004C43.3335 28.4866 43.2797 28.6691 43.1774 28.8246C43.0752 28.9802 42.929 29.102 42.7574 29.1744C42.5859 29.2468 42.3967 29.2667 42.2139 29.2315C42.031 29.1963 41.8627 29.1076 41.7304 28.9766C41.598 28.8457 41.5074 28.6784 41.4703 28.4959C41.4331 28.3135 41.4509 28.1241 41.5214 27.9518C41.592 27.7794 41.7121 27.6319 41.8666 27.528C42.021 27.424 42.2029 27.3682 42.3891 27.3677C42.5122 27.367 42.6343 27.3906 42.7484 27.4371C42.8624 27.4836 42.9662 27.5521 43.0537 27.6388C43.1413 27.7254 43.2109 27.8284 43.2587 27.9419C43.3064 28.0554 43.3313 28.1772 43.332 28.3004Z" fill="white"/>
<path d="M30.126 17.5288C31.2554 17.6106 35.3415 18.9445 36.3943 19.66C35.5229 17.1046 32.5612 16.7724 30.126 17.5288Z" fill="#009345"/>
<path d="M31.2009 23.9742C31.2009 24.8334 30.9461 25.6733 30.4688 26.3877C29.9915 27.1021 29.313 27.6589 28.5192 27.9877C27.7255 28.3165 26.852 28.4025 26.0093 28.2349C25.1666 28.0673 24.3926 27.6535 23.7851 27.046C23.1775 26.4385 22.7638 25.6644 22.5962 24.8217C22.4285 23.9791 22.5146 23.1056 22.8434 22.3118C23.1722 21.518 23.729 20.8396 24.4434 20.3622C25.1577 19.8849 25.9976 19.6301 26.8568 19.6301C28.0089 19.6301 29.1139 20.0878 29.9286 20.9025C30.7432 21.7172 31.2009 22.8221 31.2009 23.9742Z" fill="white"/>
<path d="M29.9157 24.0119C29.9162 24.6155 29.7377 25.2056 29.4027 25.7077C29.0678 26.2098 28.5914 26.6013 28.034 26.8326C27.4765 27.0639 26.8629 27.1247 26.2709 27.0073C25.6789 26.8898 25.135 26.5994 24.708 26.1728C24.2811 25.7462 23.9902 25.2026 23.8723 24.6107C23.7544 24.0187 23.8146 23.4051 24.0455 22.8475C24.2763 22.2898 24.6674 21.8131 25.1692 21.4778C25.671 21.1424 26.261 20.9634 26.8646 20.9634C27.6731 20.9641 28.4484 21.2854 29.0204 21.8569C29.5924 22.4284 29.9143 23.2034 29.9157 24.0119Z" fill="#58595B"/>
<path d="M46.8449 30.2112C43.3312 32.6873 39.3347 34.5553 33.6669 34.5553C31.0144 34.5553 30.4778 31.7444 28.7248 33.1192C27.8176 33.8321 24.6362 35.419 22.0936 35.3066C19.551 35.1942 15.4497 33.6993 14.3125 28.2947C13.8602 33.6993 13.6277 37.6805 11.5988 42.2444C15.6413 48.7171 25.2776 53.7077 34.0221 51.5612C33.0842 44.9991 38.8185 38.5698 42.051 35.281C43.2725 34.0366 45.6285 32.0025 46.8449 30.201V30.2112Z" fill="#8BC53F"/>
<path d="M46.7069 30.375C45.5875 31.3376 44.3385 32.1385 42.9965 32.754C41.6588 33.3896 40.2642 33.8978 38.8313 34.2719C37.4003 34.6424 35.9028 34.9209 34.3875 34.783C32.8722 34.645 31.321 34.1288 30.3219 32.9942L30.3704 32.938C31.6072 33.7378 33.0204 34.0189 34.4309 34.0598C35.8631 34.1014 37.2953 33.9822 38.7009 33.7046C40.1209 33.4086 41.5103 32.9809 42.8508 32.4269C44.2131 31.9067 45.4956 31.1979 46.6609 30.3213L46.7069 30.375Z" fill="#58595B"/>
</svg>
