<svg width="188" height="33" viewBox="0 0 188 33" fill="none" xmlns="http://www.w3.org/2000/svg">
<path d="M27.7487 19.6607C27.1854 20.0049 26.5282 20.0675 26.0275 19.7859C25.4016 19.4103 25.0261 18.5654 25.0261 17.4075V13.8712C25.0261 12.1813 24.3689 10.9608 23.2423 10.6479C21.3334 10.0846 19.8938 12.4317 19.3618 13.3079L15.982 18.7219V12.0561C15.9507 10.5227 15.45 9.61519 14.5112 9.33354C13.8853 9.14578 12.9465 9.23966 12.0389 10.6166L4.49698 22.6962C3.49556 20.7873 2.96356 18.6593 2.96356 16.5C2.96356 9.20836 8.81561 3.29372 15.982 3.29372C23.1484 3.29372 29.0005 9.20836 29.0005 16.5V16.5313V16.5625C29.0631 17.9708 28.625 19.0974 27.7487 19.6607ZM31.8796 16.5V16.4687V16.4374C31.8483 7.58105 24.7132 0.352051 15.982 0.352051C7.21959 0.352051 0.0844727 7.58106 0.0844727 16.5C0.0844727 25.3876 7.21959 32.6479 15.982 32.6479C20.019 32.6479 23.8369 31.1144 26.7786 28.3292C27.3732 27.7659 27.4045 26.8584 26.8412 26.2638C26.3092 25.6692 25.4016 25.6379 24.807 26.1699C24.807 26.1699 24.807 26.1699 24.7757 26.2012C22.3974 28.4544 19.2053 29.7375 15.9194 29.7375C12.0702 29.7375 8.62784 28.0476 6.24947 25.3563L13.0403 14.4658V19.5042C13.0403 21.9139 13.9792 22.6962 14.7615 22.9153C15.5439 23.1344 16.7331 22.9779 18.0162 20.9438L21.7402 14.9039C21.8654 14.7162 21.9593 14.5284 22.0844 14.4032V17.4701C22.0844 19.7233 22.992 21.5384 24.5567 22.4146C25.9649 23.2282 27.7487 23.1344 29.2195 22.2268C31.0346 21.0376 32.0047 18.9722 31.8796 16.5ZM54.036 10.9921C54.4115 11.2112 54.7558 11.7432 54.7558 12.2126C54.7558 12.9637 54.1299 13.5896 53.4101 13.5896C53.2223 13.5896 53.0659 13.527 52.9094 13.4957C52.0645 12.8698 51.0004 12.463 49.8738 12.463C47.2138 12.463 45.3987 14.6223 45.3987 17.3136C45.3987 20.0049 47.2451 22.1329 49.8738 22.1329C51.1882 22.1329 52.3774 21.6009 53.2536 20.756C53.4727 20.5995 53.7543 20.5056 54.036 20.5056C54.7558 20.5056 55.3191 21.0689 55.3191 21.7887C55.3191 22.2581 55.0374 22.6649 54.6932 22.884C53.4101 23.9793 51.6889 24.6991 49.9051 24.6991C45.8369 24.6991 42.5197 21.3506 42.5197 17.2197C42.5197 13.0889 45.8369 9.74037 49.9051 9.74037C51.4073 9.70907 52.8468 10.1785 54.036 10.9921ZM61.4841 14.1216C64.2693 14.1216 66.585 16.4687 66.585 19.379C66.585 22.2581 64.238 24.7304 61.4841 24.7304C58.5737 24.7304 56.164 22.2894 56.164 19.379C56.164 16.4687 58.5737 14.1216 61.4841 14.1216ZM61.4528 22.1329C62.6732 22.1329 63.706 20.975 63.706 19.4103C63.706 17.8456 62.6732 16.8442 61.4528 16.8442C60.1384 16.8442 59.0431 17.8143 59.0431 19.4103C59.0431 20.9438 60.1384 22.1329 61.4528 22.1329ZM68.3375 23.1031V15.7176C68.3375 14.9039 68.9634 14.2468 69.7771 14.2468C70.5594 14.2468 71.2166 14.9039 71.2166 15.7176V23.1031C71.2166 23.9167 70.5594 24.5739 69.7771 24.5739C68.9947 24.5739 68.3375 23.8854 68.3375 23.1031ZM68.1185 11.4616C68.1185 10.4914 68.8695 9.74037 69.7771 9.74037C70.7159 9.74037 71.467 10.5227 71.467 11.4616C71.467 12.4004 70.7159 13.1515 69.7771 13.1515C68.8382 13.1202 68.1185 12.3691 68.1185 11.4616ZM76.7244 19.0974V23.1031C76.7244 23.9167 76.0672 24.5739 75.2849 24.5739C74.5025 24.5739 73.8453 23.9167 73.8453 23.1031V15.3734C73.8453 14.7475 74.3461 14.2468 74.9719 14.2468C75.5978 14.2468 76.0672 14.7788 76.0672 15.3734C77.2251 14.2781 78.2579 14.1216 79.228 14.1216C82.1071 14.1216 83.3901 16.2809 83.3901 18.7532V23.1031C83.3901 23.9167 82.7329 24.5739 81.9506 24.5739C81.1682 24.5739 80.511 23.9167 80.511 23.1031V19.0974C80.511 17.8456 80.3546 16.7816 78.5395 16.7816C77.2564 16.7816 76.7244 17.8456 76.7244 19.0974ZM92.7159 20.6308C92.3716 20.6308 92.1525 20.4743 91.9648 20.2553L88.6163 16.6251V23.1031C88.6163 23.9167 87.9591 24.5739 87.1768 24.5739C86.3944 24.5739 85.7372 23.9167 85.7372 23.1031V10.2724C85.8311 10.0533 86.0502 9.89684 86.2692 9.89684C86.5196 9.89684 86.7386 10.1159 86.8951 10.2724L92.2464 16.2809C92.4029 16.4687 92.5907 16.5625 92.7159 16.5625C92.8097 16.5625 93.0288 16.4687 93.1853 16.2809L98.5366 10.2724C98.6931 10.1159 98.8808 9.89684 99.1625 9.89684C99.4128 9.89684 99.6319 10.0533 99.6945 10.2724V23.1031C99.6945 23.9167 99.0686 24.5739 98.255 24.5739C97.4726 24.5739 96.8154 23.9167 96.8154 23.1031V16.6251L93.4669 20.2553C93.2166 20.4743 92.9975 20.6308 92.7159 20.6308ZM106.548 22.1329C107.831 22.1329 108.926 20.975 108.926 19.4103C108.926 17.8456 107.8 16.8129 106.548 16.8129C105.296 16.8129 104.263 17.8769 104.263 19.4103C104.263 20.9125 105.265 22.1329 106.548 22.1329ZM109.615 23.4473L109.552 23.1031C108.989 24.1984 107.205 24.6991 106.079 24.6991C103.387 24.6991 101.384 22.2581 101.384 19.3477C101.384 16.4687 103.419 14.0903 106.235 14.0903C106.704 14.0903 108.332 14.2155 109.584 15.6863L109.646 15.3421C109.646 14.7162 110.116 14.2155 110.741 14.2155C111.367 14.2155 111.868 14.7475 111.868 15.3421V23.416C111.868 24.0419 111.367 24.5426 110.741 24.5426C110.084 24.5739 109.615 24.0419 109.615 23.4473ZM119.786 16.7816H119.473C117.657 16.8755 117.313 17.9082 117.313 19.0974V23.1031C117.313 23.9167 116.656 24.5739 115.874 24.5739C115.091 24.5739 114.434 23.9167 114.434 23.1031V15.3734C114.434 14.7475 114.935 14.2468 115.561 14.2468C116.187 14.2468 116.656 14.7788 116.656 15.3734C117.72 14.3719 118.596 14.1529 119.473 14.1216H119.754C120.443 14.1216 121.069 14.7162 121.069 15.4672C121.1 16.1557 120.474 16.7816 119.786 16.7816ZM130.895 22.4146C131.02 22.6337 131.114 22.8527 131.114 23.1031C131.114 23.8541 130.426 24.5426 129.675 24.5426C129.174 24.5426 128.736 24.1671 128.391 23.729L125.074 19.8797V23.0718C125.074 23.8854 124.417 24.5426 123.635 24.5426C122.852 24.5426 122.195 23.8854 122.195 23.0718V11.3364C122.195 10.5227 122.821 9.86554 123.635 9.86554C124.448 9.86554 125.074 10.5227 125.074 11.3364V18.6593L128.391 14.9978C128.736 14.6223 129.143 14.2155 129.643 14.2155C130.363 14.2155 131.02 14.8727 131.02 15.6237C131.02 15.8428 130.958 16.0931 130.832 16.2809L128.204 19.16L130.895 22.4146ZM136.528 16.8129C135.746 16.8129 134.463 17.2197 134.463 18.4402H138.625C138.593 17.2197 137.279 16.8129 136.528 16.8129ZM140.283 20.2866H134.463C134.463 22.0078 136.121 22.2894 136.841 22.2894C137.373 22.2894 138.124 22.1955 138.719 21.9139C138.906 21.7887 139.188 21.6948 139.47 21.6948C140.096 21.6948 140.628 22.2268 140.628 22.884C140.628 23.3221 140.346 23.6977 140.002 23.9167C139.125 24.5739 137.968 24.7304 136.872 24.7304C133.962 24.7304 131.552 23.1657 131.552 19.5042C131.552 16.6251 133.023 14.1216 136.465 14.1216C139.251 14.1216 141.347 15.9367 141.41 19.16C141.41 19.7546 140.909 20.2866 140.283 20.2866ZM148.295 24.6991H147.512C145.322 24.6991 144.039 23.729 144.039 20.3179V16.7816H143.288C142.599 16.7816 142.005 16.1557 142.005 15.4672C142.005 14.7162 142.63 14.1216 143.288 14.1216H144.039V11.399C144.039 10.5853 144.665 9.92813 145.478 9.92813C146.261 9.92813 146.918 10.5853 146.918 11.399V14.1216H148.107C148.795 14.1216 149.39 14.7162 149.39 15.4672C149.39 16.1557 148.764 16.7816 148.107 16.7816H146.918V19.7546C146.918 21.7261 147.012 22.1329 147.888 22.1329H148.295C148.983 22.1329 149.578 22.6962 149.578 23.416C149.578 24.1045 148.983 24.6991 148.295 24.6991ZM162.221 10.9921C162.596 11.2112 162.94 11.7432 162.94 12.2126C162.94 12.9637 162.315 13.5896 161.595 13.5896C161.407 13.5896 161.251 13.527 161.094 13.4957C160.249 12.8698 159.185 12.463 158.059 12.463C155.399 12.463 153.583 14.6223 153.583 17.3136C153.583 20.0049 155.43 22.1329 158.059 22.1329C159.373 22.1329 160.562 21.6009 161.438 20.756C161.657 20.5995 161.939 20.5056 162.221 20.5056C162.94 20.5056 163.504 21.0689 163.504 21.7887C163.504 22.2581 163.222 22.6649 162.878 22.884C161.595 23.9793 159.874 24.6991 158.09 24.6991C154.022 24.6991 150.704 21.3506 150.704 17.2197C150.704 13.0889 154.022 9.74037 158.09 9.74037C159.592 9.70907 161.063 10.1785 162.221 10.9921ZM169.512 22.1329C170.795 22.1329 171.891 20.975 171.891 19.4103C171.891 17.8456 170.764 16.8129 169.512 16.8129C168.229 16.8129 167.228 17.8769 167.228 19.4103C167.228 20.9125 168.26 22.1329 169.512 22.1329ZM172.579 23.4473L172.517 23.1031C171.953 24.1984 170.169 24.6991 169.043 24.6991C166.352 24.6991 164.349 22.2581 164.349 19.3477C164.349 16.4687 166.383 14.0903 169.199 14.0903C169.669 14.0903 171.296 14.2155 172.548 15.6863L172.61 15.3421C172.61 14.7162 173.08 14.2155 173.706 14.2155C174.332 14.2155 174.832 14.7475 174.832 15.3421V23.416C174.832 24.0419 174.332 24.5426 173.706 24.5426C173.049 24.5739 172.579 24.0419 172.579 23.4473ZM182.687 22.1329C183.97 22.1329 184.972 20.9125 184.972 19.4103C184.972 17.8456 183.939 16.8129 182.687 16.8129C181.404 16.8129 180.309 17.8456 180.309 19.4103C180.309 20.975 181.404 22.1329 182.687 22.1329ZM180.309 23.8541V27.5156C180.309 28.3292 179.652 28.9864 178.869 28.9864C178.087 28.9864 177.43 28.3292 177.43 27.5156V15.3734C177.43 14.7475 177.93 14.2468 178.556 14.2468C179.182 14.2468 179.652 14.7788 179.652 15.4985C180.716 14.4032 182.03 14.1216 183.031 14.1216C185.817 14.1216 187.882 16.4687 187.882 19.379C187.882 22.2581 185.911 24.7304 183.188 24.7304C182.343 24.6991 181.091 24.4487 180.309 23.8541Z" fill="white"/>
</svg>
