<svg width="151" height="35" viewBox="0 0 151 35" fill="none" xmlns="http://www.w3.org/2000/svg">
<path d="M138.201 26.023L132.757 13.4954H136.407L140.12 22.4676L144.416 13.4954H148.004L139.536 30.7496H135.907L138.201 26.023ZM124.978 23.4296C125.29 23.346 125.603 23.2414 125.895 23.0741C126.166 22.9277 126.437 22.7395 126.667 22.5303C126.896 22.3212 127.105 22.0702 127.272 21.7983C127.439 21.5055 127.585 21.1918 127.668 20.8781C127.772 20.5226 127.814 20.167 127.814 19.7906C127.814 19.4141 127.772 19.0586 127.668 18.703C127.585 18.3893 127.439 18.0756 127.272 17.7828C127.105 17.5109 126.896 17.26 126.667 17.0508C126.437 16.8417 126.166 16.6534 125.895 16.507C125.603 16.3607 125.29 16.2561 124.978 16.1724C124.644 16.0888 124.289 16.0469 123.956 16.0679C123.622 16.0679 123.267 16.1097 122.934 16.1724C122.621 16.2352 122.308 16.3607 122.016 16.507C121.724 16.6534 121.474 16.8417 121.244 17.0508C121.015 17.26 120.806 17.5109 120.639 17.7828C120.472 18.0756 120.326 18.3893 120.243 18.703C120.139 19.0586 120.097 19.435 120.097 19.7906C120.097 20.1461 120.139 20.5226 120.243 20.8781C120.326 21.1918 120.472 21.5055 120.639 21.7983C120.806 22.0702 121.015 22.3212 121.244 22.5303C121.474 22.7395 121.745 22.9277 122.016 23.0741C122.308 23.2205 122.6 23.346 122.934 23.4296C123.267 23.5133 123.601 23.5551 123.956 23.5342C124.289 23.5551 124.623 23.5133 124.978 23.4296ZM121.286 26.2321C120.723 26.0857 120.18 25.8766 119.68 25.5838C118.7 25.04 117.886 24.2244 117.344 23.2414C117.052 22.7395 116.843 22.1957 116.697 21.631C116.405 20.418 116.405 19.1631 116.697 17.9501C116.843 17.3854 117.052 16.8417 117.344 16.3397C117.886 15.3568 118.7 14.562 119.68 13.9973C120.18 13.7255 120.723 13.4954 121.286 13.349C121.891 13.2026 122.496 13.119 123.121 13.119C123.455 13.119 123.789 13.1399 124.122 13.1817C124.435 13.2235 124.727 13.2863 125.019 13.3699C125.29 13.4536 125.561 13.5372 125.812 13.6627C126.062 13.7673 126.291 13.8928 126.521 14.0392C126.729 14.1647 126.938 14.332 127.105 14.4993C127.272 14.6666 127.439 14.8339 127.564 15.0221V13.5163H131.026V26.1067H127.564V24.6008C127.105 25.1864 126.5 25.6465 125.812 25.9603C125.415 26.1485 124.998 26.274 124.56 26.3367C124.081 26.4204 123.58 26.4831 123.1 26.4622C122.496 26.4622 121.891 26.3995 121.286 26.2321ZM108.73 16.6953C109.23 16.6953 109.731 16.6534 110.211 16.528C110.586 16.4234 110.941 16.2561 111.233 16.0051C111.504 15.7751 111.712 15.4823 111.838 15.1476C111.963 14.7712 112.046 14.3738 112.025 13.9764C112.025 13.5791 111.963 13.1817 111.838 12.8052C111.712 12.4706 111.504 12.1987 111.233 11.9687C110.941 11.7386 110.586 11.5504 110.211 11.4667C109.731 11.3412 109.23 11.2785 108.73 11.2994H105.33V16.6953H108.73ZM101.743 8.3296H109.084C110.106 8.30869 111.108 8.45509 112.067 8.74789C112.839 8.97794 113.548 9.39623 114.153 9.91908C114.695 10.421 115.112 11.0275 115.383 11.7177C115.654 12.4497 115.8 13.2235 115.78 13.9973C115.78 14.7712 115.654 15.545 115.383 16.2561C115.112 16.9462 114.695 17.5528 114.153 18.0547C113.548 18.5985 112.839 18.9958 112.067 19.2259C111.108 19.5187 110.086 19.6651 109.084 19.6442H105.351V26.1067H101.764L101.743 8.3296ZM86.3713 13.4954H89.8127V15.0012C90.0212 14.7084 90.2715 14.4365 90.5635 14.2274C90.8555 13.9973 91.1892 13.7882 91.5438 13.6418C91.9192 13.4745 92.3364 13.349 92.7535 13.2653C93.2124 13.1817 93.6712 13.1399 94.1509 13.1399C94.8809 13.119 95.6109 13.2444 96.2783 13.4954C96.8832 13.7255 97.4463 14.081 97.9052 14.5411C98.364 15.0221 98.6977 15.6077 98.9063 16.2352C99.1566 16.9672 99.2609 17.7201 99.2609 18.4939V26.1067H95.8195V19.3932C95.8195 18.9122 95.7569 18.4102 95.6109 17.9501C95.4858 17.5737 95.298 17.2181 95.0269 16.9044C94.7766 16.6325 94.4429 16.4025 94.0883 16.277C93.2749 16.0051 92.3781 16.0051 91.5438 16.277C91.1892 16.4025 90.8555 16.6325 90.6052 16.9044C90.3341 17.2181 90.1464 17.5737 90.0212 17.9501C89.8752 18.4102 89.8127 18.9122 89.8127 19.3932V26.1067H86.3921L86.3713 13.4954ZM77.9033 23.3878C78.2371 23.3042 78.5499 23.1996 78.8419 23.0323C79.1339 22.8859 79.3842 22.6976 79.6136 22.4676C79.843 22.2375 80.0308 21.9866 80.1976 21.7147C80.3645 21.4219 80.4896 21.1291 80.5522 20.8154C80.719 20.1252 80.719 19.4141 80.5522 18.724C80.4062 18.0965 80.0725 17.5109 79.6136 17.0717C79.3842 16.8417 79.113 16.6534 78.8419 16.507C78.5499 16.3397 78.2162 16.2352 77.9033 16.1515C77.5488 16.0679 77.1733 16.026 76.8188 16.026C76.4642 16.026 76.0888 16.0679 75.7342 16.1515C75.4005 16.2352 75.0877 16.3397 74.7957 16.507C74.5037 16.6534 74.2534 16.8417 74.0239 17.0717C73.7945 17.3018 73.6068 17.5528 73.44 17.8246C72.9394 18.7449 72.8142 19.8115 73.0854 20.8363C73.1688 21.15 73.294 21.4637 73.44 21.7356C73.586 22.0075 73.7945 22.2585 74.0239 22.4885C74.2534 22.7186 74.5037 22.9068 74.7957 23.0532C75.0877 23.1996 75.4005 23.3251 75.7342 23.4087C76.0888 23.4924 76.4434 23.5342 76.8188 23.5342C77.1942 23.5342 77.5488 23.4924 77.9033 23.3878ZM74.7957 26.2321C74.17 26.0857 73.5651 25.8766 73.002 25.5838C72.4597 25.3119 71.98 24.9773 71.5211 24.5799C71.0831 24.1826 70.7077 23.7434 70.4157 23.2414C70.1028 22.7395 69.8734 22.1957 69.7066 21.631C69.3729 20.418 69.3729 19.1422 69.7066 17.9501C69.8734 17.3854 70.1028 16.8417 70.4157 16.3397C71.0414 15.3359 71.9383 14.5202 73.002 13.9973C73.5651 13.7045 74.17 13.4954 74.7957 13.349C76.1305 13.0353 77.5279 13.0353 78.8628 13.349C79.4885 13.4954 80.0725 13.7045 80.6356 13.9973C81.1779 14.2692 81.6576 14.6039 82.1165 15.0221C82.5544 15.4195 82.9299 15.8587 83.2427 16.3606C83.5556 16.8626 83.8059 17.4064 83.9519 17.971C84.2856 19.1841 84.2856 20.4598 83.9519 21.6519C83.639 22.8022 82.9924 23.827 82.1165 24.6008C81.6785 24.9982 81.1779 25.3328 80.6356 25.6047C80.0725 25.8975 79.4676 26.1067 78.8628 26.2531C77.5279 26.5459 76.1305 26.5459 74.7957 26.2321ZM61.4055 23.3878C61.7392 23.3042 62.0521 23.1996 62.3441 23.0323C62.6361 22.8859 62.8863 22.6976 63.1158 22.4676C63.3452 22.2375 63.5329 21.9866 63.6998 21.7147C63.8666 21.4219 63.9918 21.1291 64.0543 20.8154C64.2212 20.1252 64.2212 19.4141 64.0543 18.724C63.9083 18.0965 63.5746 17.5109 63.1158 17.0717C62.8863 16.8417 62.6152 16.6534 62.3441 16.507C62.0521 16.3397 61.7183 16.2352 61.4055 16.1515C61.0509 16.0679 60.6755 16.026 60.3209 16.026C59.9664 16.026 59.5909 16.0679 59.2364 16.1515C58.9027 16.2352 58.5898 16.3397 58.2978 16.507C58.0267 16.6534 57.7555 16.8417 57.5261 17.0717C57.2967 17.2809 57.109 17.5528 56.9421 17.8246C56.7961 18.1174 56.671 18.4102 56.5875 18.724C56.5041 19.0586 56.4415 19.4141 56.4624 19.7697C56.4624 20.1252 56.5041 20.4807 56.5875 20.8154C56.671 21.1291 56.7961 21.4428 56.9421 21.7147C57.0881 21.9866 57.2967 22.2375 57.5261 22.4676C57.7555 22.6976 58.0058 22.8859 58.2978 23.0323C58.5898 23.1787 58.9027 23.3042 59.2364 23.3878C59.5909 23.4715 59.9455 23.5133 60.3209 23.5133C60.6755 23.5133 61.0509 23.4715 61.4055 23.3878ZM58.2769 26.2321C57.6512 26.0857 57.0464 25.8766 56.4832 25.5838C55.941 25.3119 55.4613 24.9773 55.0024 24.5799C54.5644 24.1826 54.189 23.7434 53.897 23.2414C53.5841 22.7395 53.3547 22.1957 53.1879 21.631C52.8541 20.418 52.8541 19.1422 53.1879 17.9501C53.3547 17.3854 53.5841 16.8417 53.897 16.3397C54.2098 15.8378 54.5853 15.3986 55.0024 15.0012C55.4404 14.6039 55.941 14.2483 56.4832 13.9764C57.0464 13.6836 57.6512 13.4745 58.2769 13.3281C59.6118 13.0353 61.0092 13.0353 62.3441 13.3281C62.9698 13.4745 63.5538 13.6836 64.1169 13.9764C64.6592 14.2483 65.1389 14.5829 65.5977 15.0012C66.0357 15.3986 66.4112 15.8378 66.724 16.3397C67.0369 16.8417 67.2872 17.3854 67.4332 17.9501C67.7669 19.1631 67.7669 20.4389 67.4332 21.631C67.1203 22.7813 66.4737 23.8061 65.5977 24.5799C65.1597 24.9773 64.6592 25.3119 64.1169 25.5838C63.5538 25.8766 62.9489 26.0857 62.3441 26.2321C61.0301 26.5459 59.6326 26.5459 58.2769 26.2321ZM31.1629 8.3296H34.792L40.9657 17.8037L47.181 8.3296H50.7893V26.1067H47.2019V13.9137L42.0711 21.7774H39.8811L34.7503 13.9137V26.1067H31.1629V8.3296Z" fill="white"/>
<path d="M22.9037 11.5083C24.906 11.5083 26.5119 9.87697 26.5119 7.89013C26.5119 5.90328 24.8851 4.27197 22.9037 4.27197C20.9223 4.27197 19.2954 5.90328 19.2954 7.89013C19.2954 9.87697 20.9014 11.5083 22.9037 11.5083ZM11.8078 27.8423C6.92726 27.8423 2.98529 23.8895 2.98529 18.9956C2.98529 14.1016 6.92726 10.1489 11.8078 10.1489C16.6883 10.1489 20.6303 14.1016 20.6303 18.9956C20.6303 23.8895 16.6883 27.8423 11.8078 27.8423Z" fill="#7D00FF"/>
</svg>
