<svg width="192" height="33" viewBox="0 0 192 33" fill="none" xmlns="http://www.w3.org/2000/svg">
<path d="M61.5134 3.61532H50.8605V6.27679H58.6818C60.2572 6.27679 61.5134 7.55131 61.5134 9.10695V11.4311C61.5134 13.0054 60.2572 14.2612 58.6818 14.2612H48.1971V11.5997H58.8506V8.93827H51.0293C49.4537 8.93827 48.1971 7.66374 48.1971 6.10811V3.78401C48.1971 2.20962 49.4537 0.953857 51.0293 0.953857H61.5134V3.61532Z" fill="white"/>
<path d="M74.4277 0.953857C76.0031 0.953857 77.2785 2.20962 77.2785 3.78401V11.4311C77.2785 13.0054 76.0031 14.2612 74.4277 14.2612H66.2316C64.6562 14.2612 63.3994 13.0054 63.3994 11.4311V3.78401C63.3994 2.20962 64.6562 0.953857 66.2316 0.953857H74.4277ZM74.5965 3.61532H66.0627V11.5997H74.5965V3.61532Z" fill="white"/>
<path d="M82.0206 11.5061H92.4113V14.3738H80.9895C79.9764 14.3738 79.1512 13.5491 79.1512 12.537V0.841553H82.0206V11.5061Z" fill="white"/>
<path d="M105.852 0.953857C107.128 0.953857 108.159 1.96596 108.159 3.24047V14.2612H105.478V9.89416H96.9437V14.2612H94.2803V3.24047C94.2803 1.96596 95.2929 0.953857 96.5683 0.953857H105.852ZM105.478 3.61532H96.9437V7.23268H105.478V3.61532Z" fill="white"/>
<path d="M121.229 0.953857H123.911V12.5369C123.911 13.4927 123.123 14.2612 122.167 14.2612H120.104C119.447 14.28 118.866 13.9238 118.566 13.3428L113.39 3.61532H112.696V14.2612H110.032V2.69693C110.032 1.72231 110.801 0.953857 111.757 0.953857H113.933C114.571 0.953857 115.171 1.29123 115.471 1.87225L120.648 11.5997H121.229V0.953857Z" fill="white"/>
<path d="M137.356 0.953857C138.632 0.953857 139.663 1.96596 139.663 3.24047V14.2612H136.981V9.89416H128.447V14.2612H125.784V3.24047C125.784 1.96596 126.797 0.953857 128.072 0.953857H137.356ZM136.981 3.61532H128.447V7.23268H136.981V3.61532Z" fill="white"/>
<path d="M61.2511 21.1255H50.8605V23.787H61.2511V26.4485H50.8605V31.7714H48.1971V18.4641H61.2511V21.1255Z" fill="white"/>
<path d="M74.1532 18.4641C75.7286 18.4641 77.004 19.7198 77.004 21.2942V28.9413C77.004 30.5157 75.7286 31.7714 74.1532 31.7714H65.9565C64.3811 31.7714 63.1248 30.5157 63.1248 28.9413V21.2942C63.1248 19.7198 64.3811 18.4641 65.9565 18.4641H74.1532ZM74.3215 21.1255H65.7877V29.11H74.3215V21.1255Z" fill="white"/>
<path d="M90.0734 18.4641H92.7559V27.3106C92.7368 29.7847 90.7488 31.7714 88.2729 31.7714H83.3401C80.8647 31.7714 78.8762 29.7847 78.8762 27.3106V18.4641H81.5396V26.7671C81.5396 28.0604 82.5899 29.11 83.8844 29.11H87.7292C89.0231 29.11 90.0734 28.0604 90.0734 26.7671V18.4641Z" fill="white"/>
<path d="M105.825 18.4641H108.507V30.0471C108.507 31.003 107.72 31.7714 106.763 31.7714H104.7C104.043 31.7902 103.462 31.434 103.162 30.853L97.9854 21.1255H97.2915V31.7714H94.6281V20.2072C94.6281 19.2325 95.3975 18.4641 96.3538 18.4641H98.5297C99.1669 18.4641 99.7674 18.8015 100.067 19.3825L105.244 29.11H105.825V18.4641Z" fill="white"/>
<path d="M119.777 18.4641C122.253 18.4641 124.241 20.4695 124.259 22.9248V27.3106C124.241 29.7847 122.253 31.7714 119.777 31.7714H110.38V18.4641H119.777ZM121.577 23.4871C121.577 22.1751 120.527 21.1255 119.233 21.1255H113.043V29.11H119.233C120.527 29.11 121.577 28.0604 121.577 26.7671V23.4871Z" fill="white"/>
<path d="M137.704 18.4641C138.979 18.4641 140.011 19.4762 140.011 20.7507V31.7714H137.329V27.4044H128.795V31.7714H126.132V20.7507C126.132 19.4762 127.144 18.4641 128.42 18.4641H137.704ZM137.329 21.1255H128.795V24.7429H137.329V21.1255Z" fill="white"/>
<path d="M141.884 18.4641H155.2V21.1255H149.874V31.7714H147.21V21.1255H141.884V18.4641Z" fill="white"/>
<path d="M159.749 31.7714H157.086V18.4641H159.749V31.7714Z" fill="white"/>
<path d="M172.657 18.4641C174.232 18.4641 175.508 19.7198 175.508 21.2942V28.9413C175.508 30.5157 174.232 31.7714 172.657 31.7714H164.46C162.885 31.7714 161.628 30.5157 161.628 28.9413V21.2942C161.628 19.7198 162.885 18.4641 164.46 18.4641H172.657ZM172.826 21.1255H164.292V29.11H172.826V21.1255Z" fill="white"/>
<path d="M188.577 18.4641H191.26V30.0471C191.26 31.003 190.472 31.7714 189.515 31.7714H187.452C186.796 31.7902 186.214 31.434 185.914 30.853L180.737 21.1255H180.043V31.7714H177.38V20.2072C177.38 19.2325 178.149 18.4641 179.106 18.4641H181.282C181.919 18.4641 182.519 18.8015 182.819 19.3825L187.996 29.11H188.577V18.4641Z" fill="white"/>
<mask id="mask0_4846_34485" style="mask-type:luminance" maskUnits="userSpaceOnUse" x="0" y="1" width="35" height="32">
<path d="M34.4333 1.32861H0V32.1587H34.4333V1.32861Z" fill="white"/>
</mask>
<g mask="url(#mask0_4846_34485)">
<path d="M34.2559 25.6359L28.5717 31.7388C28.4482 31.8713 28.2986 31.977 28.1325 32.0493C27.9664 32.1215 27.7872 32.1588 27.606 32.1587H0.6599C0.531325 32.1587 0.405554 32.121 0.298036 32.0505C0.190518 31.9799 0.105938 31.8794 0.0546898 31.7613C0.0034407 31.6433 -0.0122453 31.5129 0.00955887 31.386C0.0313631 31.2591 0.0897076 31.1414 0.177424 31.0473L5.86594 24.9445C5.98918 24.8122 6.13822 24.7067 6.30383 24.6345C6.46944 24.5623 6.64806 24.5249 6.8287 24.5245H33.7734C33.902 24.5246 34.0278 24.5622 34.1353 24.6328C34.2428 24.7033 34.3273 24.8038 34.3786 24.9219C34.4299 25.0399 34.4455 25.1704 34.4238 25.2973C34.4019 25.4241 34.3436 25.5418 34.2559 25.6359ZM28.5717 13.3465C28.4482 13.2139 28.2986 13.1082 28.1325 13.036C27.9664 12.9637 27.7872 12.9265 27.606 12.9266H0.6599C0.531325 12.9266 0.405554 12.9642 0.298036 13.0348C0.190518 13.1054 0.105938 13.2059 0.0546898 13.3239C0.0034407 13.4419 -0.0122453 13.5724 0.00955887 13.6993C0.0313631 13.8261 0.0897076 13.9438 0.177424 14.038L5.86594 20.1408C5.98918 20.273 6.13822 20.3785 6.30383 20.4507C6.46944 20.5229 6.64806 20.5604 6.8287 20.5607H33.7734C33.902 20.5607 34.0278 20.5231 34.1353 20.4525C34.2428 20.3819 34.3273 20.2814 34.3786 20.1634C34.4299 20.0453 34.4455 19.9149 34.4238 19.788C34.4019 19.6612 34.3436 19.5434 34.2559 19.4494L28.5717 13.3465ZM0.6599 8.96274H27.606C27.7872 8.96279 27.9664 8.9256 28.1325 8.85333C28.2986 8.78111 28.4482 8.67541 28.5717 8.54287L34.2559 2.43996C34.3436 2.34585 34.4019 2.22814 34.4238 2.10129C34.4455 1.97444 34.4299 1.84398 34.3786 1.72593C34.3273 1.60788 34.2428 1.50739 34.1353 1.4368C34.0278 1.36622 33.902 1.32862 33.7734 1.32861H6.8287C6.64806 1.32892 6.46944 1.36634 6.30383 1.43857C6.13822 1.51079 5.98918 1.61627 5.86594 1.74849L0.178891 7.85138C0.0912585 7.9454 0.03294 8.06299 0.0110863 8.18969C-0.0107674 8.3164 0.00479421 8.44672 0.0558627 8.56473C0.106931 8.68274 0.191286 8.78323 0.298582 8.85391C0.405878 8.92464 0.531452 8.96242 0.6599 8.96274Z" fill="url(#paint0_linear_4846_34485)"/>
</g>
<defs>
<linearGradient id="paint0_linear_4846_34485" x1="2.90658" y1="32.8934" x2="31.199" y2="1.03482" gradientUnits="userSpaceOnUse">
<stop offset="0.08" stop-color="#9945FF"/>
<stop offset="0.3" stop-color="#8752F3"/>
<stop offset="0.5" stop-color="#5497D5"/>
<stop offset="0.6" stop-color="#43B4CA"/>
<stop offset="0.72" stop-color="#28E0B9"/>
<stop offset="0.97" stop-color="#19FB9B"/>
</linearGradient>
</defs>
</svg>
