<svg width="48" height="48" viewBox="0 0 48 48" fill="none" xmlns="http://www.w3.org/2000/svg">
<g clip-path="url(#clip0_4924_32929)">
<path d="M24 48C37.2548 48 48 37.2548 48 24C48 10.7452 37.2548 0 24 0C10.7452 0 0 10.7452 0 24C0 37.2548 10.7452 48 24 48Z" fill="#B6B6F7"/>
<path fill-rule="evenodd" clip-rule="evenodd" d="M21.9728 7C22.6014 7.00001 23.1563 7.31351 23.4895 7.79194C24.3586 7.81807 25.2165 8.01468 26.0126 8.37437C27.0281 8.83321 27.9103 9.54128 28.5764 10.4323C29.1757 11.2339 29.5817 12.1602 29.767 13.1396C33.9109 15.2315 36.7961 19.4406 36.9894 24.339H37V38H30.6726V36.0864C28.6754 37.3004 26.3288 38 23.8182 38C16.5381 38 10.6364 32.119 10.6364 24.8644C10.6364 21.6089 11.8249 18.6299 13.7931 16.335C13.4676 16.0888 13.1111 15.8845 12.732 15.728C12.3715 15.5792 11.9949 15.475 11.6108 15.4176C11.3805 16.1716 10.6775 16.7204 9.84547 16.7204C8.82629 16.7204 8.00003 15.897 8 14.8814C8 13.8658 8.82627 13.0424 9.84547 13.0424C10.3507 13.0424 10.8084 13.2448 11.1417 13.5726C11.9247 13.6013 12.697 13.7685 13.4221 14.0678C14.0149 14.3124 14.5675 14.6418 15.0631 15.0442C17.3912 12.9816 20.458 11.7288 23.8182 11.7288C25.1327 11.7288 26.4021 11.9205 27.6001 12.2775C27.4688 12.0071 27.3117 11.7486 27.1303 11.5059C26.6464 10.8587 26.0055 10.3444 25.2679 10.0111C24.7562 9.77993 24.2093 9.641 23.6529 9.59891C23.3626 10.2352 22.7199 10.678 21.9728 10.678C20.9535 10.678 20.1273 9.85464 20.1273 8.839C20.1273 7.82336 20.9535 7 21.9728 7ZM23.8182 18.0338C20.0326 18.0338 16.9638 21.092 16.9638 24.8644C16.9638 28.6368 20.0326 31.695 23.8182 31.695C27.598 31.695 30.6631 28.6463 30.6726 24.882V24.8466C30.6711 24.2335 30.588 23.6396 30.4344 23.0745C29.806 23.8458 28.8473 24.339 27.7727 24.339C25.8799 24.339 24.3455 22.8099 24.3455 20.9238C24.3455 19.853 24.84 18.8971 25.6139 18.2709C25.0416 18.1165 24.4396 18.0338 23.8182 18.0338Z" fill="white"/>
</g>
<defs>
<clipPath id="clip0_4924_32929">
<rect width="48" height="48" fill="white"/>
</clipPath>
</defs>
</svg>
