<svg width="48" height="48" viewBox="0 0 48 48" fill="none" xmlns="http://www.w3.org/2000/svg">
<path d="M47.2761 29.8059C44.0706 42.663 31.0485 50.4877 18.1899 47.2815C5.33654 44.076 -2.48813 31.0531 0.718838 18.1968C3.92281 5.33814 16.9449 -2.48728 29.7998 0.71819C42.6577 3.92366 50.4816 16.948 47.2761 29.8059Z" fill="#B6B6F7"/>
<path d="M34.5751 20.5814C35.0528 17.3879 32.6213 15.6712 29.2966 14.5259L30.3751 10.2L27.7419 9.54372L26.6919 13.7557C25.9997 13.5832 25.2887 13.4204 24.5822 13.2592L25.6397 9.01948L23.0079 8.36324L21.9287 12.6877C21.3557 12.5572 20.7932 12.4282 20.2472 12.2924L20.2502 12.2789L16.6188 11.3722L15.9183 14.1847C15.9183 14.1847 17.872 14.6324 17.8307 14.6602C18.8972 14.9264 19.09 15.6322 19.0577 16.1917L17.8292 21.1199C17.9027 21.1386 17.998 21.1656 18.103 21.2076C18.0152 21.1859 17.9215 21.1619 17.8247 21.1386L16.1028 28.0423C15.9723 28.3663 15.6415 28.8523 14.896 28.6678C14.9223 28.706 12.982 28.19 12.982 28.19L11.6748 31.2043L15.1015 32.0585C15.739 32.2182 16.3637 32.3855 16.9787 32.543L15.889 36.9184L18.5192 37.5747L19.5985 33.2457C20.317 33.4407 21.0145 33.6207 21.6969 33.7902L20.6215 38.0989L23.2547 38.7552L24.3444 34.388C28.8346 35.2377 32.2111 34.895 33.6323 30.8338C34.7776 27.5638 33.5753 25.6776 31.2129 24.4476C32.9333 24.0508 34.2293 22.9191 34.5751 20.5814ZM28.5586 29.018C27.7449 32.288 22.2392 30.5203 20.4542 30.077L21.9002 24.2803C23.6852 24.7258 29.4091 25.6078 28.5586 29.018ZM29.3731 20.5341C28.6306 23.5086 24.0482 21.9973 22.5617 21.6269L23.8727 16.3694C25.3592 16.7399 30.1464 17.4314 29.3731 20.5341Z" fill="white"/>
</svg>
