<svg width="48" height="48" viewBox="0 0 48 48" fill="none" xmlns="http://www.w3.org/2000/svg">
<circle cx="24" cy="24" r="24" fill="#B6B6F7"/>
<path d="M15.8996 29.3568C16.0445 29.2119 16.2436 29.1274 16.4548 29.1274H35.6089C35.959 29.1274 36.134 29.5499 35.8865 29.7973L32.1028 33.581C31.958 33.7259 31.7588 33.8104 31.5476 33.8104H12.3935C12.0435 33.8104 11.8685 33.3879 12.1159 33.1405L15.8996 29.3568Z" fill="white"/>
<path d="M15.8996 15.2293C16.0505 15.0845 16.2496 15 16.4548 15H35.6089C35.959 15 36.134 15.4224 35.8865 15.6699L32.1028 19.4536C31.958 19.5984 31.7588 19.6829 31.5476 19.6829H12.3935C12.0435 19.6829 11.8685 19.2605 12.1159 19.0131L15.8996 15.2293Z" fill="white"/>
<path d="M32.1028 22.2479C31.958 22.103 31.7588 22.0186 31.5476 22.0186H12.3935C12.0435 22.0186 11.8685 22.441 12.1159 22.6884L15.8996 26.4722C16.0445 26.617 16.2436 26.7015 16.4548 26.7015H35.6089C35.959 26.7015 36.134 26.279 35.8865 26.0316L32.1028 22.2479Z" fill="white"/>
</svg>
