<svg width="48" height="48" viewBox="0 0 48 48" fill="none" xmlns="http://www.w3.org/2000/svg">
<path d="M24 48C37.2548 48 48 37.2548 48 24C48 10.7452 37.2548 0 24 0C10.7452 0 0 10.7452 0 24C0 37.2548 10.7452 48 24 48Z" fill="#B6B6F7"/>
<path d="M28.3198 6.5249V9.6149C34.4848 11.4749 38.9998 17.2049 38.9998 23.9999C38.9998 30.7949 34.4848 36.5249 28.3198 38.3849V41.4749C36.1798 39.5549 41.9998 32.4599 41.9998 23.9999C41.9998 15.5399 36.1798 8.4449 28.3198 6.5249Z" fill="white"/>
<path d="M9 23.9999C9 17.2049 13.515 11.4749 19.68 9.6149V6.5249C11.82 8.4449 6 15.5399 6 23.9999C6 32.4599 11.82 39.5549 19.68 41.4749V38.3849C13.515 36.5399 9 30.7949 9 23.9999Z" fill="white"/>
<path d="M30.4501 27.345C30.4501 21.21 20.8351 23.73 20.8351 20.34C20.8351 19.125 21.8101 18.345 23.6701 18.345C25.8901 18.345 26.6551 19.425 26.8951 20.88H29.9551C29.6821 18.1494 28.1149 16.4253 25.5001 15.9117V13.5H22.5001V15.8256C19.6355 16.1904 17.8351 17.8586 17.8351 20.34C17.8351 26.505 27.4651 24.195 27.4651 27.525C27.4651 28.785 26.2501 29.625 24.1951 29.625C21.5101 29.625 20.6251 28.44 20.2951 26.805H17.3101C17.5034 29.7958 19.3477 31.6677 22.5001 32.1348V34.5H25.5001V32.1663C28.5767 31.7688 30.4501 29.979 30.4501 27.345Z" fill="white"/>
</svg>
